<svg width="40" height="40" viewBox="0 0 40 40" fill="none" xmlns="http://www.w3.org/2000/svg">
<rect width="40" height="40" rx="8" fill="#316BFF"/>
<g clip-path="url(#clip0_4922_80227)">
<path d="M26.6667 11.6667H25.8333V10.8333C25.8333 10.6123 25.7455 10.4004 25.5893 10.2441C25.433 10.0878 25.221 10 25 10C24.779 10 24.567 10.0878 24.4107 10.2441C24.2545 10.4004 24.1667 10.6123 24.1667 10.8333V11.6667H15.8333V10.8333C15.8333 10.6123 15.7455 10.4004 15.5893 10.2441C15.433 10.0878 15.221 10 15 10C14.779 10 14.567 10.0878 14.4107 10.2441C14.2545 10.4004 14.1667 10.6123 14.1667 10.8333V11.6667H13.3333C12.4493 11.6667 11.6014 12.0179 10.9763 12.643C10.3512 13.2681 10 14.1159 10 15V26.6667C10 27.5507 10.3512 28.3986 10.9763 29.0237C11.6014 29.6488 12.4493 30 13.3333 30H26.6667C27.5507 30 28.3986 29.6488 29.0237 29.0237C29.6488 28.3986 30 27.5507 30 26.6667V15C30 14.1159 29.6488 13.2681 29.0237 12.643C28.3986 12.0179 27.5507 11.6667 26.6667 11.6667ZM28.3333 26.6667C28.3333 27.1087 28.1577 27.5326 27.8452 27.8452C27.5326 28.1577 27.1087 28.3333 26.6667 28.3333H13.3333C12.8913 28.3333 12.4674 28.1577 12.1548 27.8452C11.8423 27.5326 11.6667 27.1087 11.6667 26.6667V15C11.6667 14.558 11.8423 14.134 12.1548 13.8215C12.4674 13.5089 12.8913 13.3333 13.3333 13.3333H14.1667V14.1667C14.1667 14.3877 14.2545 14.5996 14.4107 14.7559C14.567 14.9122 14.779 15 15 15C15.221 15 15.433 14.9122 15.5893 14.7559C15.7455 14.5996 15.8333 14.3877 15.8333 14.1667V13.3333H24.1667V14.1667C24.1667 14.3877 24.2545 14.5996 24.4107 14.7559C24.567 14.9122 24.779 15 25 15C25.221 15 25.433 14.9122 25.5893 14.7559C25.7455 14.5996 25.8333 14.3877 25.8333 14.1667V13.3333H26.6667C27.1087 13.3333 27.5326 13.5089 27.8452 13.8215C28.1577 14.134 28.3333 14.558 28.3333 15V26.6667Z" fill="white"/>
<path d="M25.8359 15.832H14.1693C13.9483 15.832 13.7363 15.9198 13.58 16.0761C13.4237 16.2324 13.3359 16.4444 13.3359 16.6654C13.3359 16.8864 13.4237 17.0983 13.58 17.2546C13.7363 17.4109 13.9483 17.4987 14.1693 17.4987H25.8359C26.057 17.4987 26.2689 17.4109 26.4252 17.2546C26.5815 17.0983 26.6693 16.8864 26.6693 16.6654C26.6693 16.4444 26.5815 16.2324 26.4252 16.0761C26.2689 15.9198 26.057 15.832 25.8359 15.832Z" fill="white"/>
<path d="M15.8359 20H14.1693C13.9483 20 13.7363 20.0878 13.58 20.2441C13.4237 20.4004 13.3359 20.6123 13.3359 20.8333C13.3359 21.0543 13.4237 21.2663 13.58 21.4226C13.7363 21.5789 13.9483 21.6667 14.1693 21.6667H15.8359C16.057 21.6667 16.2689 21.5789 16.4252 21.4226C16.5815 21.2663 16.6693 21.0543 16.6693 20.8333C16.6693 20.6123 16.5815 20.4004 16.4252 20.2441C16.2689 20.0878 16.057 20 15.8359 20Z" fill="white"/>
<path d="M15.8359 24.168H14.1693C13.9483 24.168 13.7363 24.2558 13.58 24.412C13.4237 24.5683 13.3359 24.7803 13.3359 25.0013C13.3359 25.2223 13.4237 25.4343 13.58 25.5906C13.7363 25.7468 13.9483 25.8346 14.1693 25.8346H15.8359C16.057 25.8346 16.2689 25.7468 16.4252 25.5906C16.5815 25.4343 16.6693 25.2223 16.6693 25.0013C16.6693 24.7803 16.5815 24.5683 16.4252 24.412C16.2689 24.2558 16.057 24.168 15.8359 24.168Z" fill="white"/>
<path d="M20.8359 20H19.1693C18.9483 20 18.7363 20.0878 18.58 20.2441C18.4237 20.4004 18.3359 20.6123 18.3359 20.8333C18.3359 21.0543 18.4237 21.2663 18.58 21.4226C18.7363 21.5789 18.9483 21.6667 19.1693 21.6667H20.8359C21.057 21.6667 21.2689 21.5789 21.4252 21.4226C21.5815 21.2663 21.6693 21.0543 21.6693 20.8333C21.6693 20.6123 21.5815 20.4004 21.4252 20.2441C21.2689 20.0878 21.057 20 20.8359 20Z" fill="white"/>
<path d="M20.8359 24.168H19.1693C18.9483 24.168 18.7363 24.2558 18.58 24.412C18.4237 24.5683 18.3359 24.7803 18.3359 25.0013C18.3359 25.2223 18.4237 25.4343 18.58 25.5906C18.7363 25.7468 18.9483 25.8346 19.1693 25.8346H20.8359C21.057 25.8346 21.2689 25.7468 21.4252 25.5906C21.5815 25.4343 21.6693 25.2223 21.6693 25.0013C21.6693 24.7803 21.5815 24.5683 21.4252 24.412C21.2689 24.2558 21.057 24.168 20.8359 24.168Z" fill="white"/>
<path d="M25.8359 20H24.1693C23.9483 20 23.7363 20.0878 23.58 20.2441C23.4237 20.4004 23.3359 20.6123 23.3359 20.8333C23.3359 21.0543 23.4237 21.2663 23.58 21.4226C23.7363 21.5789 23.9483 21.6667 24.1693 21.6667H25.8359C26.057 21.6667 26.2689 21.5789 26.4252 21.4226C26.5815 21.2663 26.6693 21.0543 26.6693 20.8333C26.6693 20.6123 26.5815 20.4004 26.4252 20.2441C26.2689 20.0878 26.057 20 25.8359 20Z" fill="white"/>
<path d="M25.8359 24.168H24.1693C23.9483 24.168 23.7363 24.2558 23.58 24.412C23.4237 24.5683 23.3359 24.7803 23.3359 25.0013C23.3359 25.2223 23.4237 25.4343 23.58 25.5906C23.7363 25.7468 23.9483 25.8346 24.1693 25.8346H25.8359C26.057 25.8346 26.2689 25.7468 26.4252 25.5906C26.5815 25.4343 26.6693 25.2223 26.6693 25.0013C26.6693 24.7803 26.5815 24.5683 26.4252 24.412C26.2689 24.2558 26.057 24.168 25.8359 24.168Z" fill="white"/>
</g>
<defs>
<clipPath id="clip0_4922_80227">
<rect width="20" height="20" fill="white" transform="translate(10 10)"/>
</clipPath>
</defs>
</svg>
