<svg width="111" height="135" viewBox="0 0 111 135" fill="none" xmlns="http://www.w3.org/2000/svg">
<g clip-path="url(#clip0_200_2618)">
<path d="M74.5058 49.2549V37.5706L84.6998 31.715M74.5338 37.5704L64.2808 31.7148" stroke="#DCDDE1" stroke-width="0.5625" stroke-linecap="round"/>
<path d="M74.635 25.662C74.549 25.6127 74.443 25.6127 74.356 25.662L64.126 31.4998C64.039 31.5498 63.9844 31.6431 63.9844 31.7441V43.4197C63.9844 43.5207 64.039 43.6139 64.126 43.664L74.356 49.5018C74.443 49.5511 74.549 49.5511 74.635 49.5018L84.865 43.664C84.953 43.6139 85.007 43.5207 85.007 43.4197V31.7441C85.007 31.6431 84.953 31.5498 84.865 31.4998L74.635 25.662Z" stroke="#DCDDE1" stroke-width="0.5625" stroke-linejoin="round"/>
<path d="M74.5058 25.3486V13.6644L84.6998 7.80879M74.5338 13.6642L64.2808 7.80859" stroke="#DCDDE1" stroke-width="0.5625" stroke-linecap="round"/>
<path d="M74.635 1.75573C74.549 1.70642 74.443 1.70642 74.356 1.75573L64.126 7.59352C64.039 7.64362 63.9844 7.73682 63.9844 7.83782V19.5134C63.9844 19.6144 64.039 19.7077 64.126 19.7577L74.356 25.5955C74.443 25.6448 74.549 25.6448 74.635 25.5955L84.865 19.7577C84.953 19.7077 85.007 19.6144 85.007 19.5134V7.83782C85.007 7.73682 84.953 7.64362 84.865 7.59352L74.635 1.75573Z" stroke="#DCDDE1" stroke-width="0.5625" stroke-linejoin="round"/>
<path d="M53.6938 37.5791V25.8948L63.8869 20.0392M53.7219 25.8947L43.4688 20.0391" stroke="#DCDDE1" stroke-width="0.5625" stroke-linecap="round"/>
<path d="M53.8224 13.9862C53.7361 13.9369 53.63 13.9369 53.5437 13.9862L43.3137 19.824C43.226 19.8741 43.1719 19.9673 43.1719 20.0683V31.7439C43.1719 31.8449 43.226 31.9381 43.3137 31.9882L53.5437 37.826C53.63 37.8753 53.7361 37.8753 53.8224 37.826L64.052 31.9882C64.14 31.9381 64.194 31.8449 64.194 31.7439V20.0683C64.194 19.9673 64.14 19.8741 64.052 19.824L53.8224 13.9862Z" stroke="#DCDDE1" stroke-width="0.5625" stroke-linejoin="round"/>
<path d="M95.3192 25.3486V13.6644L105.512 7.80879M95.3472 13.6642L85.0942 7.80859" stroke="#DCDDE1" stroke-width="0.5625" stroke-linecap="round"/>
<path d="M95.4469 1.75573C95.3609 1.70642 95.2549 1.70642 95.1689 1.75573L84.9389 7.59352C84.8509 7.64362 84.7969 7.73682 84.7969 7.83782V19.5134C84.7969 19.6144 84.8509 19.7077 84.9389 19.7577L95.1689 25.5955C95.2549 25.6448 95.3609 25.6448 95.4469 25.5955L105.677 19.7577C105.765 19.7077 105.819 19.6144 105.819 19.5134V7.83782C105.819 7.73682 105.765 7.64362 105.677 7.59352L95.4469 1.75573Z" stroke="#DCDDE1" stroke-width="0.5625" stroke-linejoin="round"/>
<path d="M53.6938 61.4892V49.805L63.8869 43.9494M53.7219 49.8048L43.4688 43.9492" stroke="#DCDDE1" stroke-width="0.5625" stroke-linecap="round"/>
<path d="M53.8224 37.8964C53.7361 37.847 53.63 37.847 53.5437 37.8964L43.3137 43.7342C43.226 43.7842 43.1719 43.8775 43.1719 43.9784V55.6541C43.1719 55.755 43.226 55.8483 43.3137 55.8983L53.5437 61.7361C53.63 61.7854 53.7361 61.7854 53.8224 61.7361L64.052 55.8983C64.14 55.8483 64.194 55.755 64.194 55.6541V43.9784C64.194 43.8775 64.14 43.7842 64.052 43.7342L53.8224 37.8964Z" stroke="#DCDDE1" stroke-width="0.5625" stroke-linejoin="round"/>
<path d="M84.9169 67.0521V55.646L94.8419 49.9298M84.9439 55.6459L74.9609 49.9297" stroke="#DCDDE1" stroke-width="0.5625" stroke-linecap="round"/>
<path d="M85.0461 44.0098C84.9591 43.9603 84.8531 43.9603 84.7661 44.0098L74.8061 49.7086C74.7181 49.7587 74.6641 49.8518 74.6641 49.9527V61.3504C74.6641 61.4512 74.7181 61.5444 74.8061 61.5945L84.7661 67.2933C84.8531 67.3428 84.9591 67.3428 85.0461 67.2933L95.0061 61.5945C95.0941 61.5444 95.1481 61.4512 95.1481 61.3504V49.9527C95.1481 49.8518 95.0941 49.7587 95.0061 49.7086L85.0461 44.0098Z" stroke="#DCDDE1" stroke-width="0.5625" stroke-linejoin="round"/>
<path d="M95.3192 49.2549V37.5706L105.512 31.715M95.3472 37.5704L85.0942 31.7148" stroke="#DCDDE1" stroke-width="0.5625" stroke-linecap="round"/>
<path d="M95.4469 25.662C95.3609 25.6127 95.2549 25.6127 95.1689 25.662L84.9389 31.4998C84.8509 31.5498 84.7969 31.6431 84.7969 31.7441V43.4197C84.7969 43.5207 84.8509 43.6139 84.9389 43.664L95.1689 49.5018C95.2549 49.5511 95.3609 49.5511 95.4469 49.5018L105.677 43.664C105.765 43.6139 105.819 43.5207 105.819 43.4197V31.7441C105.819 31.6431 105.765 31.5498 105.677 31.4998L95.4469 25.662Z" stroke="#DCDDE1" stroke-width="0.5625" stroke-linejoin="round"/>
<g opacity="0.4" filter="url(#filter0_f_200_2618)">
<path d="M71.7069 67.7979C80.1699 80.2305 69.2869 69.663 57.6026 78.6685C45.9183 87.674 37.8577 112.842 29.3942 100.41C20.9307 87.9771 23.5417 70.598 35.226 61.5925C46.9103 52.587 63.2433 55.3653 71.7069 67.7979Z" fill="#FFDDDD"/>
<path d="M91.238 52.3317C99.701 64.7643 97.09 82.1433 85.406 91.1489C73.722 100.154 57.3886 97.3759 48.9252 84.9435C40.4617 72.5109 58.3969 77.6427 70.081 68.6372C81.765 59.6317 82.774 39.8991 91.238 52.3317Z" fill="#FC9C03"/>
</g>
</g>
<defs>
<filter id="filter0_f_200_2618" x="-35.5747" y="-11.6643" width="191.781" height="175.458" filterUnits="userSpaceOnUse" color-interpolation-filters="sRGB">
<feFlood flood-opacity="0" result="BackgroundImageFix"/>
<feBlend mode="normal" in="SourceGraphic" in2="BackgroundImageFix" result="shape"/>
<feGaussianBlur stdDeviation="30" result="effect1_foregroundBlur_200_2618"/>
</filter>
<clipPath id="clip0_200_2618">
<rect width="111" height="135" fill="white"/>
</clipPath>
</defs>
</svg>
