<svg width="123" height="176" viewBox="0 0 123 176" fill="none" xmlns="http://www.w3.org/2000/svg">
<path d="M115.005 113.814L115.005 105.653L122.124 101.564M115.024 105.653L107.863 101.563" stroke="#DCDDE1" stroke-width="0.5625" stroke-linecap="round"/>
<path d="M115.137 97.2623C115.05 97.213 114.944 97.213 114.858 97.2623L107.713 101.34C107.625 101.39 107.571 101.483 107.571 101.584V109.738C107.571 109.839 107.625 109.932 107.713 109.982L114.858 114.06C114.944 114.109 115.05 114.109 115.137 114.06L122.281 109.982C122.369 109.932 122.423 109.839 122.423 109.738V101.584C122.423 101.483 122.369 101.39 122.281 101.34L115.137 97.2623Z" stroke="#DCDDE1" stroke-width="0.5625" stroke-linejoin="round"/>
<path d="M115.005 97.1159L115.005 88.9555L122.124 84.8658M115.024 88.9554L107.863 84.8657" stroke="#DCDDE1" stroke-width="0.5625" stroke-linecap="round"/>
<path d="M115.137 80.5646C115.05 80.5153 114.944 80.5153 114.858 80.5646L107.713 84.6418C107.625 84.6918 107.571 84.7851 107.571 84.886V93.0404C107.571 93.1414 107.625 93.2347 107.713 93.2847L114.858 97.3619C114.944 97.4112 115.05 97.4112 115.137 97.3619L122.281 93.2847C122.369 93.2347 122.423 93.1414 122.423 93.0404V84.886C122.423 84.7851 122.369 84.6918 122.281 84.6418L115.137 80.5646Z" stroke="#DCDDE1" stroke-width="0.5625" stroke-linejoin="round"/>
<path d="M100.469 105.658L100.469 97.4975L107.588 93.4078M100.488 97.4973L93.3271 93.4077" stroke="#DCDDE1" stroke-width="0.5625" stroke-linecap="round"/>
<path d="M100.601 89.1066C100.514 89.0573 100.408 89.0573 100.322 89.1066L93.177 93.1838C93.0893 93.2338 93.0352 93.327 93.0352 93.428V101.582C93.0352 101.683 93.0893 101.777 93.177 101.827L100.322 105.904C100.408 105.953 100.514 105.953 100.601 105.904L107.745 101.827C107.833 101.777 107.887 101.683 107.887 101.582V93.428C107.887 93.327 107.833 93.2338 107.745 93.1838L100.601 89.1066Z" stroke="#DCDDE1" stroke-width="0.5625" stroke-linejoin="round"/>
<path d="M129.54 97.1159L129.54 88.9555L136.659 84.8658M129.559 88.9554L122.398 84.8657" stroke="#DCDDE1" stroke-width="0.5625" stroke-linecap="round"/>
<path d="M129.672 80.5646C129.585 80.5153 129.479 80.5153 129.393 80.5646L122.248 84.6418C122.161 84.6918 122.106 84.7851 122.106 84.886V93.0404C122.106 93.1414 122.161 93.2347 122.248 93.2847L129.393 97.3619C129.479 97.4112 129.585 97.4112 129.672 97.3619L136.817 93.2847C136.904 93.2347 136.958 93.1414 136.958 93.0404V84.886C136.958 84.7851 136.904 84.6918 136.817 84.6418L129.672 80.5646Z" stroke="#DCDDE1" stroke-width="0.5625" stroke-linejoin="round"/>
<path d="M100.469 122.356L100.469 114.195L107.588 110.106M100.488 114.195L93.3271 110.105" stroke="#DCDDE1" stroke-width="0.5625" stroke-linecap="round"/>
<path d="M100.601 105.804C100.514 105.755 100.408 105.755 100.322 105.804L93.177 109.882C93.0893 109.932 93.0352 110.025 93.0352 110.126V118.28C93.0352 118.381 93.0893 118.474 93.177 118.524L100.322 122.602C100.408 122.651 100.514 122.651 100.601 122.602L107.745 118.524C107.833 118.474 107.887 118.381 107.887 118.28V110.126C107.887 110.025 107.833 109.932 107.745 109.882L100.601 105.804Z" stroke="#DCDDE1" stroke-width="0.5625" stroke-linejoin="round"/>
<path d="M122.276 126.242L122.276 118.276L129.207 114.284M122.295 118.276L115.322 114.284" stroke="#DCDDE1" stroke-width="0.5625" stroke-linecap="round"/>
<path d="M122.407 110.075C122.32 110.026 122.214 110.026 122.128 110.075L115.171 114.056C115.083 114.106 115.029 114.199 115.029 114.3V122.26C115.029 122.361 115.083 122.454 115.171 122.504L122.128 126.484C122.214 126.534 122.32 126.534 122.407 126.484L129.364 122.504C129.451 122.454 129.505 122.361 129.505 122.26V114.3C129.505 114.199 129.451 114.106 129.364 114.056L122.407 110.075Z" stroke="#DCDDE1" stroke-width="0.5625" stroke-linejoin="round"/>
<path d="M129.54 113.814L129.54 105.653L136.659 101.564M129.559 105.653L122.398 101.563" stroke="#DCDDE1" stroke-width="0.5625" stroke-linecap="round"/>
<path d="M129.672 97.2623C129.585 97.213 129.479 97.213 129.393 97.2623L122.248 101.34C122.161 101.39 122.106 101.483 122.106 101.584V109.738C122.106 109.839 122.161 109.932 122.248 109.982L129.393 114.06C129.479 114.109 129.585 114.109 129.672 114.06L136.817 109.982C136.904 109.932 136.958 109.839 136.958 109.738V101.584C136.958 101.483 136.904 101.39 136.817 101.34L129.672 97.2623Z" stroke="#DCDDE1" stroke-width="0.5625" stroke-linejoin="round"/>
<g opacity="0.4" filter="url(#filter0_f_198_2433)">
<path d="M107.707 79.7959C116.17 92.2285 105.287 81.661 93.6027 90.6665C81.9184 99.672 73.8578 124.84 65.3943 112.408C56.9308 99.9751 59.5418 82.5961 71.2261 73.5906C82.9104 64.5851 99.2434 67.3633 107.707 79.7959Z" fill="#FFDDDD"/>
<path d="M127.238 64.3338C135.701 76.7664 133.09 94.1454 121.406 103.151C109.722 112.156 93.3886 109.378 84.9252 96.9456C76.4617 84.513 94.3969 89.6447 106.081 80.6392C117.765 71.6337 118.774 51.9012 127.238 64.3338Z" fill="#FC9C03"/>
</g>
<defs>
<filter id="filter0_f_198_2433" x="0.425293" y="0.337646" width="191.781" height="175.453" filterUnits="userSpaceOnUse" color-interpolation-filters="sRGB">
<feFlood flood-opacity="0" result="BackgroundImageFix"/>
<feBlend mode="normal" in="SourceGraphic" in2="BackgroundImageFix" result="shape"/>
<feGaussianBlur stdDeviation="30" result="effect1_foregroundBlur_198_2433"/>
</filter>
</defs>
</svg>
