<svg width="321" height="267" viewBox="0 0 321 267" fill="none" xmlns="http://www.w3.org/2000/svg">
<g opacity="0.1">
<path d="M12 240.675L36.75 240.675L36.75 266.625L12 266.625L12 240.675ZM36.75 239.925L12 239.925L12 213.975L36.75 213.975L36.75 239.925ZM36.75 213.225L12 213.225L12 187.275L36.75 187.275L36.75 213.225ZM36.75 186.525L12 186.525L12 160.575L36.75 160.575L36.75 186.525ZM36.75 159.825L12 159.825L12 133.875L36.75 133.875L36.75 159.825ZM36.75 133.125L12 133.125L12 107.175L36.75 107.175L36.75 133.125ZM36.75 106.425L12 106.425L12 80.475L36.75 80.475L36.75 106.425ZM36.75 79.725L12 79.725L12 53.775L36.75 53.775L36.75 79.725ZM36.75 53.025L12 53.025L12 27.075L36.75 27.075L36.75 53.025ZM36.75 26.325L12 26.325L12 0.375L36.75 0.374999L36.75 26.325Z" stroke="url(#paint0_linear_184_415)" stroke-width="0.75"/>
<path d="M36.75 240.675L61.5 240.675L61.5 266.625L36.75 266.625L36.75 240.675ZM61.5 239.925L36.75 239.925L36.75 213.975L61.5 213.975L61.5 239.925ZM61.5 213.225L36.75 213.225L36.75 187.275L61.5 187.275L61.5 213.225ZM61.5 186.525L36.75 186.525L36.75 160.575L61.5 160.575L61.5 186.525ZM61.5 159.825L36.75 159.825L36.75 133.875L61.5 133.875L61.5 159.825ZM61.5 133.125L36.75 133.125L36.75 107.175L61.5 107.175L61.5 133.125ZM61.5 106.425L36.75 106.425L36.75 80.475L61.5 80.475L61.5 106.425ZM61.5 79.725L36.75 79.725L36.75 53.775L61.5 53.775L61.5 79.725ZM61.5 53.025L36.75 53.025L36.75 27.075L61.5 27.075L61.5 53.025ZM61.5 26.325L36.75 26.325L36.75 0.375L61.5 0.374999L61.5 26.325Z" stroke="url(#paint1_linear_184_415)" stroke-width="0.75"/>
<path d="M61.5 240.675L86.25 240.675L86.25 266.625L61.5 266.625L61.5 240.675ZM86.25 239.925L61.5 239.925L61.5 213.975L86.25 213.975L86.25 239.925ZM86.25 213.225L61.5 213.225L61.5 187.275L86.25 187.275L86.25 213.225ZM86.25 186.525L61.5 186.525L61.5 160.575L86.25 160.575L86.25 186.525ZM86.25 159.825L61.5 159.825L61.5 133.875L86.25 133.875L86.25 159.825ZM86.25 133.125L61.5 133.125L61.5 107.175L86.25 107.175L86.25 133.125ZM86.25 106.425L61.5 106.425L61.5 80.475L86.25 80.475L86.25 106.425ZM86.25 79.725L61.5 79.725L61.5 53.775L86.25 53.775L86.25 79.725ZM86.25 53.025L61.5 53.025L61.5 27.075L86.25 27.075L86.25 53.025ZM86.25 26.325L61.5 26.325L61.5 0.375L86.25 0.374999L86.25 26.325Z" stroke="url(#paint2_linear_184_415)" stroke-width="0.75"/>
<path d="M86.25 240.675L111 240.675L111 266.625L86.25 266.625L86.25 240.675ZM111 239.925L86.25 239.925L86.25 213.975L111 213.975L111 239.925ZM111 213.225L86.25 213.225L86.25 187.275L111 187.275L111 213.225ZM111 186.525L86.25 186.525L86.25 160.575L111 160.575L111 186.525ZM111 159.825L86.25 159.825L86.25 133.875L111 133.875L111 159.825ZM111 133.125L86.25 133.125L86.25 107.175L111 107.175L111 133.125ZM111 106.425L86.25 106.425L86.25 80.475L111 80.475L111 106.425ZM111 79.725L86.25 79.725L86.25 53.775L111 53.775L111 79.725ZM111 53.025L86.25 53.025L86.25 27.075L111 27.075L111 53.025ZM111 26.325L86.25 26.325L86.25 0.375L111 0.374999L111 26.325Z" stroke="url(#paint3_linear_184_415)" stroke-width="0.75"/>
<path d="M111 240.675L135.75 240.675L135.75 266.625L111 266.625L111 240.675ZM135.75 239.925L111 239.925L111 213.975L135.75 213.975L135.75 239.925ZM135.75 213.225L111 213.225L111 187.275L135.75 187.275L135.75 213.225ZM135.75 186.525L111 186.525L111 160.575L135.75 160.575L135.75 186.525ZM135.75 159.825L111 159.825L111 133.875L135.75 133.875L135.75 159.825ZM135.75 133.125L111 133.125L111 107.175L135.75 107.175L135.75 133.125ZM135.75 106.425L111 106.425L111 80.475L135.75 80.475L135.75 106.425ZM135.75 79.725L111 79.725L111 53.775L135.75 53.775L135.75 79.725ZM135.75 53.025L111 53.025L111 27.075L135.75 27.075L135.75 53.025ZM135.75 26.325L111 26.325L111 0.375L135.75 0.374999L135.75 26.325Z" stroke="url(#paint4_linear_184_415)" stroke-width="0.75"/>
<path d="M135.75 240.675L160.5 240.675L160.5 266.625L135.75 266.625L135.75 240.675ZM160.5 239.925L135.75 239.925L135.75 213.975L160.5 213.975L160.5 239.925ZM160.5 213.225L135.75 213.225L135.75 187.275L160.5 187.275L160.5 213.225ZM160.5 186.525L135.75 186.525L135.75 160.575L160.5 160.575L160.5 186.525ZM160.5 159.825L135.75 159.825L135.75 133.875L160.5 133.875L160.5 159.825ZM160.5 133.125L135.75 133.125L135.75 107.175L160.5 107.175L160.5 133.125ZM160.5 106.425L135.75 106.425L135.75 80.475L160.5 80.475L160.5 106.425ZM160.5 79.725L135.75 79.725L135.75 53.775L160.5 53.775L160.5 79.725ZM160.5 53.025L135.75 53.025L135.75 27.075L160.5 27.075L160.5 53.025ZM160.5 26.325L135.75 26.325L135.75 0.375L160.5 0.374999L160.5 26.325Z" stroke="url(#paint5_linear_184_415)" stroke-width="0.75"/>
<path d="M160.5 240.675L185.25 240.675L185.25 266.625L160.5 266.625L160.5 240.675ZM185.25 239.925L160.5 239.925L160.5 213.975L185.25 213.975L185.25 239.925ZM185.25 213.225L160.5 213.225L160.5 187.275L185.25 187.275L185.25 213.225ZM185.25 186.525L160.5 186.525L160.5 160.575L185.25 160.575L185.25 186.525ZM185.25 159.825L160.5 159.825L160.5 133.875L185.25 133.875L185.25 159.825ZM185.25 133.125L160.5 133.125L160.5 107.175L185.25 107.175L185.25 133.125ZM185.25 106.425L160.5 106.425L160.5 80.475L185.25 80.475L185.25 106.425ZM185.25 79.725L160.5 79.725L160.5 53.775L185.25 53.775L185.25 79.725ZM185.25 53.025L160.5 53.025L160.5 27.075L185.25 27.075L185.25 53.025ZM185.25 26.325L160.5 26.325L160.5 0.375L185.25 0.374999L185.25 26.325Z" stroke="url(#paint6_linear_184_415)" stroke-width="0.75"/>
<path d="M185.25 240.675L210 240.675L210 266.625L185.25 266.625L185.25 240.675ZM210 239.925L185.25 239.925L185.25 213.975L210 213.975L210 239.925ZM210 213.225L185.25 213.225L185.25 187.275L210 187.275L210 213.225ZM210 186.525L185.25 186.525L185.25 160.575L210 160.575L210 186.525ZM210 159.825L185.25 159.825L185.25 133.875L210 133.875L210 159.825ZM210 133.125L185.25 133.125L185.25 107.175L210 107.175L210 133.125ZM210 106.425L185.25 106.425L185.25 80.475L210 80.475L210 106.425ZM210 79.725L185.25 79.725L185.25 53.775L210 53.775L210 79.725ZM210 53.025L185.25 53.025L185.25 27.075L210 27.075L210 53.025ZM210 26.325L185.25 26.325L185.25 0.375L210 0.374999L210 26.325Z" stroke="url(#paint7_linear_184_415)" stroke-width="0.75"/>
<path d="M210 240.675L234.75 240.675L234.75 266.625L210 266.625L210 240.675ZM234.75 239.925L210 239.925L210 213.975L234.75 213.975L234.75 239.925ZM234.75 213.225L210 213.225L210 187.275L234.75 187.275L234.75 213.225ZM234.75 186.525L210 186.525L210 160.575L234.75 160.575L234.75 186.525ZM234.75 159.825L210 159.825L210 133.875L234.75 133.875L234.75 159.825ZM234.75 133.125L210 133.125L210 107.175L234.75 107.175L234.75 133.125ZM234.75 106.425L210 106.425L210 80.475L234.75 80.475L234.75 106.425ZM234.75 79.725L210 79.725L210 53.775L234.75 53.775L234.75 79.725ZM234.75 53.025L210 53.025L210 27.075L234.75 27.075L234.75 53.025ZM234.75 26.325L210 26.325L210 0.375L234.75 0.374999L234.75 26.325Z" stroke="url(#paint8_linear_184_415)" stroke-width="0.75"/>
<path d="M234.75 240.675L259.5 240.675L259.5 266.625L234.75 266.625L234.75 240.675ZM259.5 239.925L234.75 239.925L234.75 213.975L259.5 213.975L259.5 239.925ZM259.5 213.225L234.75 213.225L234.75 187.275L259.5 187.275L259.5 213.225ZM259.5 186.525L234.75 186.525L234.75 160.575L259.5 160.575L259.5 186.525ZM259.5 159.825L234.75 159.825L234.75 133.875L259.5 133.875L259.5 159.825ZM259.5 133.125L234.75 133.125L234.75 107.175L259.5 107.175L259.5 133.125ZM259.5 106.425L234.75 106.425L234.75 80.475L259.5 80.475L259.5 106.425ZM259.5 79.725L234.75 79.725L234.75 53.775L259.5 53.775L259.5 79.725ZM259.5 53.025L234.75 53.025L234.75 27.075L259.5 27.075L259.5 53.025ZM259.5 26.325L234.75 26.325L234.75 0.375L259.5 0.374999L259.5 26.325Z" stroke="url(#paint9_linear_184_415)" stroke-width="0.75"/>
<path d="M259.5 240.675L284.25 240.675L284.25 266.625L259.5 266.625L259.5 240.675ZM284.25 239.925L259.5 239.925L259.5 213.975L284.25 213.975L284.25 239.925ZM284.25 213.225L259.5 213.225L259.5 187.275L284.25 187.275L284.25 213.225ZM284.25 186.525L259.5 186.525L259.5 160.575L284.25 160.575L284.25 186.525ZM284.25 159.825L259.5 159.825L259.5 133.875L284.25 133.875L284.25 159.825ZM284.25 133.125L259.5 133.125L259.5 107.175L284.25 107.175L284.25 133.125ZM284.25 106.425L259.5 106.425L259.5 80.475L284.25 80.475L284.25 106.425ZM284.25 79.725L259.5 79.725L259.5 53.775L284.25 53.775L284.25 79.725ZM284.25 53.025L259.5 53.025L259.5 27.075L284.25 27.075L284.25 53.025ZM284.25 26.325L259.5 26.325L259.5 0.375L284.25 0.374999L284.25 26.325Z" stroke="url(#paint10_linear_184_415)" stroke-width="0.75"/>
<path d="M284.25 240.675L309 240.675L309 266.625L284.25 266.625L284.25 240.675ZM309 239.925L284.25 239.925L284.25 213.975L309 213.975L309 239.925ZM309 213.225L284.25 213.225L284.25 187.275L309 187.275L309 213.225ZM309 186.525L284.25 186.525L284.25 160.575L309 160.575L309 186.525ZM309 159.825L284.25 159.825L284.25 133.875L309 133.875L309 159.825ZM309 133.125L284.25 133.125L284.25 107.175L309 107.175L309 133.125ZM309 106.425L284.25 106.425L284.25 80.475L309 80.475L309 106.425ZM309 79.725L284.25 79.725L284.25 53.775L309 53.775L309 79.725ZM309 53.025L284.25 53.025L284.25 27.075L309 27.075L309 53.025ZM309 26.325L284.25 26.325L284.25 0.375L309 0.374999L309 26.325Z" stroke="url(#paint11_linear_184_415)" stroke-width="0.75"/>
</g>
<defs>
<linearGradient id="paint0_linear_184_415" x1="24.375" y1="267" x2="24.375" y2="-5.83547e-07" gradientUnits="userSpaceOnUse">
<stop offset="0.48" stop-color="white"/>
<stop offset="1" stop-color="white" stop-opacity="0"/>
</linearGradient>
<linearGradient id="paint1_linear_184_415" x1="49.125" y1="267" x2="49.125" y2="-5.83547e-07" gradientUnits="userSpaceOnUse">
<stop offset="0.48" stop-color="white"/>
<stop offset="1" stop-color="white" stop-opacity="0"/>
</linearGradient>
<linearGradient id="paint2_linear_184_415" x1="73.875" y1="267" x2="73.875" y2="-5.83547e-07" gradientUnits="userSpaceOnUse">
<stop offset="0.48" stop-color="white"/>
<stop offset="1" stop-color="white" stop-opacity="0"/>
</linearGradient>
<linearGradient id="paint3_linear_184_415" x1="98.625" y1="267" x2="98.625" y2="-5.83547e-07" gradientUnits="userSpaceOnUse">
<stop offset="0.48" stop-color="white"/>
<stop offset="1" stop-color="white" stop-opacity="0"/>
</linearGradient>
<linearGradient id="paint4_linear_184_415" x1="123.375" y1="267" x2="123.375" y2="-5.83547e-07" gradientUnits="userSpaceOnUse">
<stop offset="0.48" stop-color="white"/>
<stop offset="1" stop-color="white" stop-opacity="0"/>
</linearGradient>
<linearGradient id="paint5_linear_184_415" x1="148.125" y1="267" x2="148.125" y2="-5.83547e-07" gradientUnits="userSpaceOnUse">
<stop offset="0.48" stop-color="white"/>
<stop offset="1" stop-color="white" stop-opacity="0"/>
</linearGradient>
<linearGradient id="paint6_linear_184_415" x1="172.875" y1="267" x2="172.875" y2="-5.83547e-07" gradientUnits="userSpaceOnUse">
<stop offset="0.48" stop-color="white"/>
<stop offset="1" stop-color="white" stop-opacity="0"/>
</linearGradient>
<linearGradient id="paint7_linear_184_415" x1="197.625" y1="267" x2="197.625" y2="-5.83547e-07" gradientUnits="userSpaceOnUse">
<stop offset="0.48" stop-color="white"/>
<stop offset="1" stop-color="white" stop-opacity="0"/>
</linearGradient>
<linearGradient id="paint8_linear_184_415" x1="222.375" y1="267" x2="222.375" y2="-5.83547e-07" gradientUnits="userSpaceOnUse">
<stop offset="0.48" stop-color="white"/>
<stop offset="1" stop-color="white" stop-opacity="0"/>
</linearGradient>
<linearGradient id="paint9_linear_184_415" x1="247.125" y1="267" x2="247.125" y2="-5.83547e-07" gradientUnits="userSpaceOnUse">
<stop offset="0.48" stop-color="white"/>
<stop offset="1" stop-color="white" stop-opacity="0"/>
</linearGradient>
<linearGradient id="paint10_linear_184_415" x1="271.875" y1="267" x2="271.875" y2="-5.83547e-07" gradientUnits="userSpaceOnUse">
<stop offset="0.48" stop-color="white"/>
<stop offset="1" stop-color="white" stop-opacity="0"/>
</linearGradient>
<linearGradient id="paint11_linear_184_415" x1="296.625" y1="267" x2="296.625" y2="-5.83547e-07" gradientUnits="userSpaceOnUse">
<stop offset="0.48" stop-color="white"/>
<stop offset="1" stop-color="white" stop-opacity="0"/>
</linearGradient>
</defs>
</svg>
