<svg width="148" height="131" viewBox="0 0 148 131" fill="none" xmlns="http://www.w3.org/2000/svg">
<path d="M41.5083 104.255L41.5083 92.5706L51.7015 86.715M41.5364 92.5705L31.2832 86.7149" stroke="#DCDDE1" stroke-width="0.5625" stroke-linecap="round"/>
<path d="M41.6369 80.662C41.5505 80.6127 41.4445 80.6127 41.3581 80.662L31.1282 86.4998C31.0405 86.5498 30.9863 86.6431 30.9863 86.7441V98.4197C30.9863 98.5207 31.0405 98.6139 31.1282 98.664L41.3581 104.502C41.4445 104.551 41.5505 104.551 41.6369 104.502L51.8668 98.664C51.9545 98.6139 52.0087 98.5207 52.0087 98.4197V86.7441C52.0087 86.6431 51.9545 86.5498 51.8668 86.4998L41.6369 80.662Z" stroke="#DCDDE1" stroke-width="0.5625" stroke-linejoin="round"/>
<path d="M41.5083 80.3486L41.5083 68.6644L51.7015 62.8088M41.5364 68.6642L31.2832 62.8086" stroke="#DCDDE1" stroke-width="0.5625" stroke-linecap="round"/>
<path d="M41.6369 56.7557C41.5505 56.7064 41.4445 56.7064 41.3581 56.7557L31.1282 62.5935C31.0405 62.6436 30.9863 62.7368 30.9863 62.8378V74.5134C30.9863 74.6144 31.0405 74.7077 31.1282 74.7577L41.3581 80.5955C41.4445 80.6448 41.5505 80.6448 41.6369 80.5955L51.8668 74.7577C51.9545 74.7077 52.0087 74.6144 52.0087 74.5134V62.8378C52.0087 62.7368 51.9545 62.6436 51.8668 62.5935L41.6369 56.7557Z" stroke="#DCDDE1" stroke-width="0.5625" stroke-linejoin="round"/>
<path d="M20.6958 92.5791L20.6958 80.8948L30.889 75.0392M20.7239 80.8947L10.4707 75.0391" stroke="#DCDDE1" stroke-width="0.5625" stroke-linecap="round"/>
<path d="M20.8244 68.9862C20.738 68.9369 20.632 68.9369 20.5456 68.9862L10.3157 74.824C10.228 74.8741 10.1738 74.9673 10.1738 75.0683V86.7439C10.1738 86.8449 10.228 86.9381 10.3157 86.9882L20.5456 92.826C20.632 92.8753 20.738 92.8753 20.8244 92.826L31.0543 86.9882C31.142 86.9381 31.1962 86.8449 31.1962 86.7439V75.0683C31.1962 74.9673 31.142 74.8741 31.0543 74.824L20.8244 68.9862Z" stroke="#DCDDE1" stroke-width="0.5625" stroke-linejoin="round"/>
<path d="M62.3208 80.3486L62.3208 68.6644L72.514 62.8088M62.3489 68.6642L52.0957 62.8086" stroke="#DCDDE1" stroke-width="0.5625" stroke-linecap="round"/>
<path d="M62.4494 56.7557C62.363 56.7064 62.257 56.7064 62.1706 56.7557L51.9407 62.5935C51.853 62.6436 51.7988 62.7368 51.7988 62.8378V74.5134C51.7988 74.6144 51.853 74.7077 51.9407 74.7577L62.1706 80.5955C62.257 80.6448 62.363 80.6448 62.4494 80.5955L72.6793 74.7577C72.767 74.7077 72.8212 74.6144 72.8212 74.5134V62.8378C72.8212 62.7368 72.767 62.6436 72.6793 62.5935L62.4494 56.7557Z" stroke="#DCDDE1" stroke-width="0.5625" stroke-linejoin="round"/>
<path d="M20.6958 116.489L20.6958 104.805L30.889 98.9494M20.7239 104.805L10.4707 98.9492" stroke="#DCDDE1" stroke-width="0.5625" stroke-linecap="round"/>
<path d="M20.8244 92.8964C20.738 92.847 20.632 92.847 20.5456 92.8964L10.3157 98.7342C10.228 98.7842 10.1738 98.8775 10.1738 98.9784V110.654C10.1738 110.755 10.228 110.848 10.3157 110.898L20.5456 116.736C20.632 116.785 20.738 116.785 20.8244 116.736L31.0543 110.898C31.142 110.848 31.1962 110.755 31.1962 110.654V98.9784C31.1962 98.8775 31.142 98.7842 31.0543 98.7342L20.8244 92.8964Z" stroke="#DCDDE1" stroke-width="0.5625" stroke-linejoin="round"/>
<path d="M51.9189 122.052L51.9189 110.646L61.8438 104.93M51.9463 110.646L41.9629 104.93" stroke="#DCDDE1" stroke-width="0.5625" stroke-linecap="round"/>
<path d="M52.0476 99.0098C51.9611 98.9603 51.8548 98.9603 51.7683 99.0098L41.8076 104.709C41.72 104.759 41.666 104.852 41.666 104.953V116.35C41.666 116.451 41.72 116.544 41.8076 116.594L51.7683 122.293C51.8548 122.343 51.9611 122.343 52.0476 122.293L62.0084 116.594C62.0959 116.544 62.1499 116.451 62.1499 116.35V104.953C62.1499 104.852 62.0959 104.759 62.0084 104.709L52.0476 99.0098Z" stroke="#DCDDE1" stroke-width="0.5625" stroke-linejoin="round"/>
<path d="M62.3208 104.255L62.3208 92.5706L72.514 86.715M62.3489 92.5705L52.0957 86.7149" stroke="#DCDDE1" stroke-width="0.5625" stroke-linecap="round"/>
<path d="M62.4494 80.662C62.363 80.6127 62.257 80.6127 62.1706 80.662L51.9407 86.4998C51.853 86.5498 51.7988 86.6431 51.7988 86.7441V98.4197C51.7988 98.5207 51.853 98.6139 51.9407 98.664L62.1706 104.502C62.257 104.551 62.363 104.551 62.4494 104.502L72.6793 98.664C72.767 98.6139 72.8212 98.5207 72.8212 98.4197V86.7441C72.8212 86.6431 72.767 86.5498 72.6793 86.4998L62.4494 80.662Z" stroke="#DCDDE1" stroke-width="0.5625" stroke-linejoin="round"/>
<g opacity="0.4" filter="url(#filter0_f_2883_55271)">
<path opacity="0.5" d="M40.3223 102.572C49.8652 116.59 37.5938 104.675 24.4194 114.829C11.2449 124.983 2.15624 153.361 -7.38663 139.343C-16.9295 125.324 -13.9855 105.729 -0.81104 95.5749C12.3634 85.4209 30.7795 88.5535 40.3223 102.572Z" fill="#FFDDDD"/>
<path opacity="0.8" d="M62.3453 85.1332C71.8882 99.1514 68.9442 118.747 55.7697 128.901C42.5953 139.055 24.1792 135.922 14.6363 121.904C5.09346 107.886 25.316 113.672 38.4905 103.518C51.665 93.3641 52.8024 71.1149 62.3453 85.1332Z" fill="#FC9C03"/>
</g>
<defs>
<filter id="filter0_f_2883_55271" x="-92.9893" y="0.627464" width="240.937" height="222.53" filterUnits="userSpaceOnUse" color-interpolation-filters="sRGB">
<feFlood flood-opacity="0" result="BackgroundImageFix"/>
<feBlend mode="normal" in="SourceGraphic" in2="BackgroundImageFix" result="shape"/>
<feGaussianBlur stdDeviation="40" result="effect1_foregroundBlur_2883_55271"/>
</filter>
</defs>
</svg>
