<svg width="168" height="168" viewBox="0 0 168 168" fill="none" xmlns="http://www.w3.org/2000/svg">
<path d="M126.508 57.2549L126.508 45.5706L136.701 39.715M126.536 45.5704L116.283 39.7148" stroke="#DCDDE1" stroke-width="0.5625" stroke-linecap="round"/>
<path d="M126.637 33.662C126.551 33.6127 126.444 33.6127 126.358 33.662L116.128 39.4998C116.04 39.5498 115.986 39.6431 115.986 39.7441V51.4197C115.986 51.5207 116.04 51.6139 116.128 51.664L126.358 57.5018C126.444 57.5511 126.551 57.5511 126.637 57.5018L136.867 51.664C136.955 51.6139 137.009 51.5207 137.009 51.4197V39.7441C137.009 39.6431 136.955 39.5498 136.867 39.4998L126.637 33.662Z" stroke="#DCDDE1" stroke-width="0.5625" stroke-linejoin="round"/>
<path d="M126.508 33.3486L126.508 21.6644L136.701 15.8088M126.536 21.6642L116.283 15.8086" stroke="#DCDDE1" stroke-width="0.5625" stroke-linecap="round"/>
<path d="M126.637 9.75573C126.551 9.70642 126.444 9.70642 126.358 9.75573L116.128 15.5935C116.04 15.6436 115.986 15.7368 115.986 15.8378V27.5134C115.986 27.6144 116.04 27.7077 116.128 27.7577L126.358 33.5955C126.444 33.6448 126.551 33.6448 126.637 33.5955L136.867 27.7577C136.955 27.7077 137.009 27.6144 137.009 27.5134V15.8378C137.009 15.7368 136.955 15.6436 136.867 15.5935L126.637 9.75573Z" stroke="#DCDDE1" stroke-width="0.5625" stroke-linejoin="round"/>
<path d="M105.696 45.5791L105.696 33.8948L115.889 28.0392M105.724 33.8947L95.4707 28.0391" stroke="#DCDDE1" stroke-width="0.5625" stroke-linecap="round"/>
<path d="M105.824 21.9862C105.738 21.9369 105.632 21.9369 105.546 21.9862L95.3157 27.824C95.228 27.8741 95.1738 27.9673 95.1738 28.0683V39.7439C95.1738 39.8449 95.228 39.9381 95.3157 39.9882L105.546 45.826C105.632 45.8753 105.738 45.8753 105.824 45.826L116.054 39.9882C116.142 39.9381 116.196 39.8449 116.196 39.7439V28.0683C116.196 27.9673 116.142 27.8741 116.054 27.824L105.824 21.9862Z" stroke="#DCDDE1" stroke-width="0.5625" stroke-linejoin="round"/>
<path d="M147.321 33.3486L147.321 21.6644L157.514 15.8088M147.349 21.6642L137.096 15.8086" stroke="#DCDDE1" stroke-width="0.5625" stroke-linecap="round"/>
<path d="M147.449 9.75573C147.363 9.70642 147.257 9.70642 147.171 9.75573L136.941 15.5935C136.853 15.6436 136.799 15.7368 136.799 15.8378V27.5134C136.799 27.6144 136.853 27.7077 136.941 27.7577L147.171 33.5955C147.257 33.6448 147.363 33.6448 147.449 33.5955L157.679 27.7577C157.767 27.7077 157.821 27.6144 157.821 27.5134V15.8378C157.821 15.7368 157.767 15.6436 157.679 15.5935L147.449 9.75573Z" stroke="#DCDDE1" stroke-width="0.5625" stroke-linejoin="round"/>
<path d="M105.696 69.4892L105.696 57.805L115.889 51.9494M105.724 57.8048L95.4707 51.9492" stroke="#DCDDE1" stroke-width="0.5625" stroke-linecap="round"/>
<path d="M105.824 45.8964C105.738 45.847 105.632 45.847 105.546 45.8964L95.3157 51.7342C95.228 51.7842 95.1738 51.8775 95.1738 51.9784V63.6541C95.1738 63.755 95.228 63.8483 95.3157 63.8983L105.546 69.7361C105.632 69.7854 105.738 69.7854 105.824 69.7361L116.054 63.8983C116.142 63.8483 116.196 63.755 116.196 63.6541V51.9784C116.196 51.8775 116.142 51.7842 116.054 51.7342L105.824 45.8964Z" stroke="#DCDDE1" stroke-width="0.5625" stroke-linejoin="round"/>
<path d="M136.919 75.0521L136.919 63.646L146.844 57.9298M136.946 63.6459L126.963 57.9297" stroke="#DCDDE1" stroke-width="0.5625" stroke-linecap="round"/>
<path d="M137.048 52.0098C136.961 51.9603 136.855 51.9603 136.768 52.0098L126.808 57.7086C126.72 57.7587 126.666 57.8518 126.666 57.9527V69.3504C126.666 69.4512 126.72 69.5444 126.808 69.5945L136.768 75.2933C136.855 75.3428 136.961 75.3428 137.048 75.2933L147.008 69.5945C147.096 69.5444 147.15 69.4512 147.15 69.3504V57.9527C147.15 57.8518 147.096 57.7587 147.008 57.7086L137.048 52.0098Z" stroke="#DCDDE1" stroke-width="0.5625" stroke-linejoin="round"/>
<path d="M147.321 57.2549L147.321 45.5706L157.514 39.715M147.349 45.5704L137.096 39.7148" stroke="#DCDDE1" stroke-width="0.5625" stroke-linecap="round"/>
<path d="M147.449 33.662C147.363 33.6127 147.257 33.6127 147.171 33.662L136.941 39.4998C136.853 39.5498 136.799 39.6431 136.799 39.7441V51.4197C136.799 51.5207 136.853 51.6139 136.941 51.664L147.171 57.5018C147.257 57.5511 147.363 57.5511 147.449 57.5018L157.679 51.664C157.767 51.6139 157.821 51.5207 157.821 51.4197V39.7441C157.821 39.6431 157.767 39.5498 157.679 39.4998L147.449 33.662Z" stroke="#DCDDE1" stroke-width="0.5625" stroke-linejoin="round"/>
<g opacity="0.4" filter="url(#filter0_f_2883_55238)">
<path d="M127.709 67.7979C136.172 80.2305 125.289 69.663 113.605 78.6685C101.92 87.674 93.8597 112.842 85.3963 100.41C76.9328 87.9771 79.5438 70.598 91.2281 61.5925C102.912 52.587 119.245 55.3653 127.709 67.7979Z" fill="#FFDDDD"/>
<path d="M147.24 52.3318C155.703 64.7644 153.092 82.1434 141.408 91.1489C129.724 100.154 113.391 97.3762 104.927 84.9436C96.4636 72.511 114.399 77.6428 126.083 68.6373C137.767 59.6318 138.776 39.8992 147.24 52.3318Z" fill="#FC9C03"/>
</g>
<defs>
<filter id="filter0_f_2883_55238" x="0.427246" y="-31.6642" width="231.781" height="215.457" filterUnits="userSpaceOnUse" color-interpolation-filters="sRGB">
<feFlood flood-opacity="0" result="BackgroundImageFix"/>
<feBlend mode="normal" in="SourceGraphic" in2="BackgroundImageFix" result="shape"/>
<feGaussianBlur stdDeviation="40" result="effect1_foregroundBlur_2883_55238"/>
</filter>
</defs>
</svg>
