<svg width="960" height="110" viewBox="0 0 960 110" fill="none" xmlns="http://www.w3.org/2000/svg">
<g clip-path="url(#clip0_221_497)">
<g filter="url(#filter0_f_221_497)">
<circle cx="73.5" cy="18.5" r="65.5" fill="#E4EAFF"/>
</g>
<g filter="url(#filter1_f_221_497)">
<circle cx="887.5" cy="130.5" r="111.5" fill="#94AAFF"/>
<circle cx="887.5" cy="130.5" r="111.5" fill="url(#paint0_radial_221_497)"/>
</g>
<g opacity="0.8" filter="url(#filter2_f_221_497)">
<circle cx="184" cy="14" r="26" fill="#94AAFF"/>
<circle cx="184" cy="14" r="26" fill="url(#paint1_radial_221_497)"/>
</g>
<g style="mix-blend-mode:plus-lighter" opacity="0.1">
<path d="M788.5 217.675L813.25 217.675L813.25 243.625L788.5 243.625L788.5 217.675ZM813.25 216.925L788.5 216.925L788.5 190.975L813.25 190.975L813.25 216.925ZM813.25 190.225L788.5 190.225L788.5 164.275L813.25 164.275L813.25 190.225ZM813.25 163.525L788.5 163.525L788.5 137.575L813.25 137.575L813.25 163.525ZM813.25 136.825L788.5 136.825L788.5 110.875L813.25 110.875L813.25 136.825ZM813.25 110.125L788.5 110.125L788.5 84.175L813.25 84.175L813.25 110.125ZM813.25 83.425L788.5 83.425L788.5 57.475L813.25 57.475L813.25 83.425ZM813.25 56.725L788.5 56.725L788.5 30.775L813.25 30.775L813.25 56.725ZM813.25 30.025L788.5 30.025L788.5 4.075L813.25 4.075L813.25 30.025ZM813.25 3.325L788.5 3.325L788.5 -22.625L813.25 -22.625L813.25 3.325Z" stroke="url(#paint2_linear_221_497)" stroke-width="0.75"/>
<path d="M813.25 217.675L838 217.675L838 243.625L813.25 243.625L813.25 217.675ZM838 216.925L813.25 216.925L813.25 190.975L838 190.975L838 216.925ZM838 190.225L813.25 190.225L813.25 164.275L838 164.275L838 190.225ZM838 163.525L813.25 163.525L813.25 137.575L838 137.575L838 163.525ZM838 136.825L813.25 136.825L813.25 110.875L838 110.875L838 136.825ZM838 110.125L813.25 110.125L813.25 84.175L838 84.175L838 110.125ZM838 83.425L813.25 83.425L813.25 57.475L838 57.475L838 83.425ZM838 56.725L813.25 56.725L813.25 30.775L838 30.775L838 56.725ZM838 30.025L813.25 30.025L813.25 4.075L838 4.075L838 30.025ZM838 3.325L813.25 3.325L813.25 -22.625L838 -22.625L838 3.325Z" stroke="url(#paint3_linear_221_497)" stroke-width="0.75"/>
<path d="M838 217.675L862.75 217.675L862.75 243.625L838 243.625L838 217.675ZM862.75 216.925L838 216.925L838 190.975L862.75 190.975L862.75 216.925ZM862.75 190.225L838 190.225L838 164.275L862.75 164.275L862.75 190.225ZM862.75 163.525L838 163.525L838 137.575L862.75 137.575L862.75 163.525ZM862.75 136.825L838 136.825L838 110.875L862.75 110.875L862.75 136.825ZM862.75 110.125L838 110.125L838 84.175L862.75 84.175L862.75 110.125ZM862.75 83.425L838 83.425L838 57.475L862.75 57.475L862.75 83.425ZM862.75 56.725L838 56.725L838 30.775L862.75 30.775L862.75 56.725ZM862.75 30.025L838 30.025L838 4.075L862.75 4.075L862.75 30.025ZM862.75 3.325L838 3.325L838 -22.625L862.75 -22.625L862.75 3.325Z" stroke="url(#paint4_linear_221_497)" stroke-width="0.75"/>
<path d="M862.75 217.675L887.5 217.675L887.5 243.625L862.75 243.625L862.75 217.675ZM887.5 216.925L862.75 216.925L862.75 190.975L887.5 190.975L887.5 216.925ZM887.5 190.225L862.75 190.225L862.75 164.275L887.5 164.275L887.5 190.225ZM887.5 163.525L862.75 163.525L862.75 137.575L887.5 137.575L887.5 163.525ZM887.5 136.825L862.75 136.825L862.75 110.875L887.5 110.875L887.5 136.825ZM887.5 110.125L862.75 110.125L862.75 84.175L887.5 84.175L887.5 110.125ZM887.5 83.425L862.75 83.425L862.75 57.475L887.5 57.475L887.5 83.425ZM887.5 56.725L862.75 56.725L862.75 30.775L887.5 30.775L887.5 56.725ZM887.5 30.025L862.75 30.025L862.75 4.075L887.5 4.075L887.5 30.025ZM887.5 3.325L862.75 3.325L862.75 -22.625L887.5 -22.625L887.5 3.325Z" stroke="url(#paint5_linear_221_497)" stroke-width="0.75"/>
<path d="M887.5 217.675L912.25 217.675L912.25 243.625L887.5 243.625L887.5 217.675ZM912.25 216.925L887.5 216.925L887.5 190.975L912.25 190.975L912.25 216.925ZM912.25 190.225L887.5 190.225L887.5 164.275L912.25 164.275L912.25 190.225ZM912.25 163.525L887.5 163.525L887.5 137.575L912.25 137.575L912.25 163.525ZM912.25 136.825L887.5 136.825L887.5 110.875L912.25 110.875L912.25 136.825ZM912.25 110.125L887.5 110.125L887.5 84.175L912.25 84.175L912.25 110.125ZM912.25 83.425L887.5 83.425L887.5 57.475L912.25 57.475L912.25 83.425ZM912.25 56.725L887.5 56.725L887.5 30.775L912.25 30.775L912.25 56.725ZM912.25 30.025L887.5 30.025L887.5 4.075L912.25 4.075L912.25 30.025ZM912.25 3.325L887.5 3.325L887.5 -22.625L912.25 -22.625L912.25 3.325Z" stroke="url(#paint6_linear_221_497)" stroke-width="0.75"/>
<path d="M912.25 217.675L937 217.675L937 243.625L912.25 243.625L912.25 217.675ZM937 216.925L912.25 216.925L912.25 190.975L937 190.975L937 216.925ZM937 190.225L912.25 190.225L912.25 164.275L937 164.275L937 190.225ZM937 163.525L912.25 163.525L912.25 137.575L937 137.575L937 163.525ZM937 136.825L912.25 136.825L912.25 110.875L937 110.875L937 136.825ZM937 110.125L912.25 110.125L912.25 84.175L937 84.175L937 110.125ZM937 83.425L912.25 83.425L912.25 57.475L937 57.475L937 83.425ZM937 56.725L912.25 56.725L912.25 30.775L937 30.775L937 56.725ZM937 30.025L912.25 30.025L912.25 4.075L937 4.075L937 30.025ZM937 3.325L912.25 3.325L912.25 -22.625L937 -22.625L937 3.325Z" stroke="url(#paint7_linear_221_497)" stroke-width="0.75"/>
<path d="M937 217.675L961.75 217.675L961.75 243.625L937 243.625L937 217.675ZM961.75 216.925L937 216.925L937 190.975L961.75 190.975L961.75 216.925ZM961.75 190.225L937 190.225L937 164.275L961.75 164.275L961.75 190.225ZM961.75 163.525L937 163.525L937 137.575L961.75 137.575L961.75 163.525ZM961.75 136.825L937 136.825L937 110.875L961.75 110.875L961.75 136.825ZM961.75 110.125L937 110.125L937 84.175L961.75 84.175L961.75 110.125ZM961.75 83.425L937 83.425L937 57.475L961.75 57.475L961.75 83.425ZM961.75 56.725L937 56.725L937 30.775L961.75 30.775L961.75 56.725ZM961.75 30.025L937 30.025L937 4.075L961.75 4.075L961.75 30.025ZM961.75 3.325L937 3.325L937 -22.625L961.75 -22.625L961.75 3.325Z" stroke="url(#paint8_linear_221_497)" stroke-width="0.75"/>
</g>
<g style="mix-blend-mode:plus-lighter" opacity="0.1">
<path d="M255.402 152.23L272.085 152.23L272.085 169.722L255.402 169.722L255.402 152.23ZM272.085 151.724L255.402 151.724L255.402 134.233L272.085 134.233L272.085 151.724ZM272.085 133.727L255.402 133.727L255.402 116.235L272.085 116.235L272.085 133.727ZM272.085 115.73L255.402 115.73L255.402 98.2376L272.085 98.2376L272.085 115.73ZM272.085 97.7321L255.402 97.7321L255.402 80.2402L272.085 80.2402L272.085 97.7321ZM272.085 79.7346L255.402 79.7346L255.402 62.2427L272.085 62.2427L272.085 79.7346ZM272.085 61.7372L255.402 61.7372L255.402 44.2453L272.085 44.2453L272.085 61.7372ZM272.085 43.7398L255.402 43.7398L255.402 26.2479L272.085 26.2479L272.085 43.7398ZM272.085 25.7423L255.402 25.7423L255.402 8.25043L272.085 8.25043L272.085 25.7423ZM272.085 7.74489L255.402 7.74489L255.402 -9.74701L272.085 -9.74701L272.085 7.74489Z" stroke="url(#paint9_linear_221_497)" stroke-width="0.505546"/>
<path d="M272.085 152.23L288.768 152.23L288.768 169.722L272.085 169.722L272.085 152.23ZM288.768 151.724L272.085 151.724L272.085 134.233L288.768 134.233L288.768 151.724ZM288.768 133.727L272.085 133.727L272.085 116.235L288.768 116.235L288.768 133.727ZM288.768 115.73L272.085 115.73L272.085 98.2376L288.768 98.2376L288.768 115.73ZM288.768 97.7321L272.085 97.7321L272.085 80.2402L288.768 80.2402L288.768 97.7321ZM288.768 79.7346L272.085 79.7346L272.085 62.2427L288.768 62.2427L288.768 79.7346ZM288.768 61.7372L272.085 61.7372L272.085 44.2453L288.768 44.2453L288.768 61.7372ZM288.768 43.7398L272.085 43.7398L272.085 26.2479L288.768 26.2479L288.768 43.7398ZM288.768 25.7423L272.085 25.7423L272.085 8.25043L288.768 8.25043L288.768 25.7423ZM288.768 7.74489L272.085 7.74489L272.085 -9.74701L288.768 -9.74701L288.768 7.74489Z" stroke="url(#paint10_linear_221_497)" stroke-width="0.505546"/>
<path d="M288.768 152.23L305.451 152.23L305.451 169.722L288.768 169.722L288.768 152.23ZM305.451 151.724L288.768 151.724L288.768 134.233L305.451 134.233L305.451 151.724ZM305.451 133.727L288.768 133.727L288.768 116.235L305.451 116.235L305.451 133.727ZM305.451 115.73L288.768 115.73L288.768 98.2376L305.451 98.2376L305.451 115.73ZM305.451 97.7321L288.768 97.7321L288.768 80.2402L305.451 80.2402L305.451 97.7321ZM305.451 79.7346L288.768 79.7346L288.768 62.2427L305.451 62.2427L305.451 79.7346ZM305.451 61.7372L288.768 61.7372L288.768 44.2453L305.451 44.2453L305.451 61.7372ZM305.451 43.7398L288.768 43.7398L288.768 26.2479L305.451 26.2479L305.451 43.7398ZM305.451 25.7423L288.768 25.7423L288.768 8.25043L305.451 8.25043L305.451 25.7423ZM305.451 7.74489L288.768 7.74489L288.768 -9.74701L305.451 -9.74701L305.451 7.74489Z" stroke="url(#paint11_linear_221_497)" stroke-width="0.505546"/>
<path d="M305.451 152.23L322.134 152.23L322.134 169.722L305.451 169.722L305.451 152.23ZM322.134 151.724L305.451 151.724L305.451 134.233L322.134 134.233L322.134 151.724ZM322.134 133.727L305.451 133.727L305.451 116.235L322.134 116.235L322.134 133.727ZM322.134 115.73L305.451 115.73L305.451 98.2376L322.134 98.2376L322.134 115.73ZM322.134 97.7321L305.451 97.7321L305.451 80.2402L322.134 80.2402L322.134 97.7321ZM322.134 79.7346L305.451 79.7346L305.451 62.2427L322.134 62.2427L322.134 79.7346ZM322.134 61.7372L305.451 61.7372L305.451 44.2453L322.134 44.2453L322.134 61.7372ZM322.134 43.7398L305.451 43.7398L305.451 26.2479L322.134 26.2479L322.134 43.7398ZM322.134 25.7423L305.451 25.7423L305.451 8.25043L322.134 8.25043L322.134 25.7423ZM322.134 7.74489L305.451 7.74489L305.451 -9.74701L322.134 -9.74701L322.134 7.74489Z" stroke="url(#paint12_linear_221_497)" stroke-width="0.505546"/>
<path d="M322.134 152.23L338.817 152.23L338.817 169.722L322.134 169.722L322.134 152.23ZM338.817 151.724L322.134 151.724L322.134 134.233L338.817 134.233L338.817 151.724ZM338.817 133.727L322.134 133.727L322.134 116.235L338.817 116.235L338.817 133.727ZM338.817 115.73L322.134 115.73L322.134 98.2376L338.817 98.2376L338.817 115.73ZM338.817 97.7321L322.134 97.7321L322.134 80.2402L338.817 80.2402L338.817 97.7321ZM338.817 79.7346L322.134 79.7346L322.134 62.2427L338.817 62.2427L338.817 79.7346ZM338.817 61.7372L322.134 61.7372L322.134 44.2453L338.817 44.2453L338.817 61.7372ZM338.817 43.7398L322.134 43.7398L322.134 26.2479L338.817 26.2479L338.817 43.7398ZM338.817 25.7423L322.134 25.7423L322.134 8.25043L338.817 8.25043L338.817 25.7423ZM338.817 7.74489L322.134 7.74489L322.134 -9.74701L338.817 -9.74701L338.817 7.74489Z" stroke="url(#paint13_linear_221_497)" stroke-width="0.505546"/>
<path d="M338.817 152.23L355.5 152.23L355.5 169.722L338.817 169.722L338.817 152.23ZM355.5 151.724L338.817 151.724L338.817 134.233L355.5 134.233L355.5 151.724ZM355.5 133.727L338.817 133.727L338.817 116.235L355.5 116.235L355.5 133.727ZM355.5 115.73L338.817 115.73L338.817 98.2376L355.5 98.2376L355.5 115.73ZM355.5 97.7321L338.817 97.7321L338.817 80.2402L355.5 80.2402L355.5 97.7321ZM355.5 79.7346L338.817 79.7346L338.817 62.2427L355.5 62.2427L355.5 79.7346ZM355.5 61.7372L338.817 61.7372L338.817 44.2453L355.5 44.2453L355.5 61.7372ZM355.5 43.7398L338.817 43.7398L338.817 26.2479L355.5 26.2479L355.5 43.7398ZM355.5 25.7423L338.817 25.7423L338.817 8.25043L355.5 8.25043L355.5 25.7423ZM355.5 7.74489L338.817 7.74489L338.817 -9.74701L355.5 -9.74701L355.5 7.74489Z" stroke="url(#paint14_linear_221_497)" stroke-width="0.505546"/>
<path d="M355.5 152.23L372.183 152.23L372.183 169.722L355.5 169.722L355.5 152.23ZM372.183 151.724L355.5 151.724L355.5 134.233L372.183 134.233L372.183 151.724ZM372.183 133.727L355.5 133.727L355.5 116.235L372.183 116.235L372.183 133.727ZM372.183 115.73L355.5 115.73L355.5 98.2376L372.183 98.2376L372.183 115.73ZM372.183 97.7321L355.5 97.7321L355.5 80.2402L372.183 80.2402L372.183 97.7321ZM372.183 79.7346L355.5 79.7346L355.5 62.2427L372.183 62.2427L372.183 79.7346ZM372.183 61.7372L355.5 61.7372L355.5 44.2453L372.183 44.2453L372.183 61.7372ZM372.183 43.7398L355.5 43.7398L355.5 26.2479L372.183 26.2479L372.183 43.7398ZM372.183 25.7423L355.5 25.7423L355.5 8.25043L372.183 8.25043L372.183 25.7423ZM372.183 7.74489L355.5 7.74489L355.5 -9.74701L372.183 -9.74701L372.183 7.74489Z" stroke="url(#paint15_linear_221_497)" stroke-width="0.505546"/>
<path d="M372.183 152.23L388.866 152.23L388.866 169.722L372.183 169.722L372.183 152.23ZM388.866 151.724L372.183 151.724L372.183 134.233L388.866 134.233L388.866 151.724ZM388.866 133.727L372.183 133.727L372.183 116.235L388.866 116.235L388.866 133.727ZM388.866 115.73L372.183 115.73L372.183 98.2376L388.866 98.2376L388.866 115.73ZM388.866 97.7321L372.183 97.7321L372.183 80.2402L388.866 80.2402L388.866 97.7321ZM388.866 79.7346L372.183 79.7346L372.183 62.2427L388.866 62.2427L388.866 79.7346ZM388.866 61.7372L372.183 61.7372L372.183 44.2453L388.866 44.2453L388.866 61.7372ZM388.866 43.7398L372.183 43.7398L372.183 26.2479L388.866 26.2479L388.866 43.7398ZM388.866 25.7423L372.183 25.7423L372.183 8.25043L388.866 8.25043L388.866 25.7423ZM388.866 7.74489L372.183 7.74489L372.183 -9.74701L388.866 -9.74701L388.866 7.74489Z" stroke="url(#paint16_linear_221_497)" stroke-width="0.505546"/>
<path d="M388.866 152.23L405.549 152.23L405.549 169.722L388.866 169.722L388.866 152.23ZM405.549 151.724L388.866 151.724L388.866 134.233L405.549 134.233L405.549 151.724ZM405.549 133.727L388.866 133.727L388.866 116.235L405.549 116.235L405.549 133.727ZM405.549 115.73L388.866 115.73L388.866 98.2376L405.549 98.2376L405.549 115.73ZM405.549 97.7321L388.866 97.7321L388.866 80.2402L405.549 80.2402L405.549 97.7321ZM405.549 79.7346L388.866 79.7346L388.866 62.2427L405.549 62.2427L405.549 79.7346ZM405.549 61.7372L388.866 61.7372L388.866 44.2453L405.549 44.2453L405.549 61.7372ZM405.549 43.7398L388.866 43.7398L388.866 26.2479L405.549 26.2479L405.549 43.7398ZM405.549 25.7423L388.866 25.7423L388.866 8.25043L405.549 8.25043L405.549 25.7423ZM405.549 7.74489L388.866 7.74489L388.866 -9.74701L405.549 -9.74701L405.549 7.74489Z" stroke="url(#paint17_linear_221_497)" stroke-width="0.505546"/>
<path d="M405.549 152.23L422.232 152.23L422.232 169.722L405.549 169.722L405.549 152.23ZM422.232 151.724L405.549 151.724L405.549 134.233L422.232 134.233L422.232 151.724ZM422.232 133.727L405.549 133.727L405.549 116.235L422.232 116.235L422.232 133.727ZM422.232 115.73L405.549 115.73L405.549 98.2376L422.232 98.2376L422.232 115.73ZM422.232 97.7321L405.549 97.7321L405.549 80.2402L422.232 80.2402L422.232 97.7321ZM422.232 79.7346L405.549 79.7346L405.549 62.2427L422.232 62.2427L422.232 79.7346ZM422.232 61.7372L405.549 61.7372L405.549 44.2453L422.232 44.2453L422.232 61.7372ZM422.232 43.7398L405.549 43.7398L405.549 26.2479L422.232 26.2479L422.232 43.7398ZM422.232 25.7423L405.549 25.7423L405.549 8.25043L422.232 8.25043L422.232 25.7423ZM422.232 7.74489L405.549 7.74489L405.549 -9.74701L422.232 -9.74701L422.232 7.74489Z" stroke="url(#paint18_linear_221_497)" stroke-width="0.505546"/>
<path d="M422.232 152.23L438.915 152.23L438.915 169.722L422.232 169.722L422.232 152.23ZM438.915 151.724L422.232 151.724L422.232 134.233L438.915 134.233L438.915 151.724ZM438.915 133.727L422.232 133.727L422.232 116.235L438.915 116.235L438.915 133.727ZM438.915 115.73L422.232 115.73L422.232 98.2376L438.915 98.2376L438.915 115.73ZM438.915 97.7321L422.232 97.7321L422.232 80.2402L438.915 80.2402L438.915 97.7321ZM438.915 79.7346L422.232 79.7346L422.232 62.2427L438.915 62.2427L438.915 79.7346ZM438.915 61.7372L422.232 61.7372L422.232 44.2453L438.915 44.2453L438.915 61.7372ZM438.915 43.7398L422.232 43.7398L422.232 26.2479L438.915 26.2479L438.915 43.7398ZM438.915 25.7423L422.232 25.7423L422.232 8.25043L438.915 8.25043L438.915 25.7423ZM438.915 7.74489L422.232 7.74489L422.232 -9.74701L438.915 -9.74701L438.915 7.74489Z" stroke="url(#paint19_linear_221_497)" stroke-width="0.505546"/>
<path d="M438.915 152.23L455.598 152.23L455.598 169.722L438.915 169.722L438.915 152.23ZM455.598 151.724L438.915 151.724L438.915 134.233L455.598 134.233L455.598 151.724ZM455.598 133.727L438.915 133.727L438.915 116.235L455.598 116.235L455.598 133.727ZM455.598 115.73L438.915 115.73L438.915 98.2376L455.598 98.2376L455.598 115.73ZM455.598 97.7321L438.915 97.7321L438.915 80.2402L455.598 80.2402L455.598 97.7321ZM455.598 79.7346L438.915 79.7346L438.915 62.2427L455.598 62.2427L455.598 79.7346ZM455.598 61.7372L438.915 61.7372L438.915 44.2453L455.598 44.2453L455.598 61.7372ZM455.598 43.7398L438.915 43.7398L438.915 26.2479L455.598 26.2479L455.598 43.7398ZM455.598 25.7423L438.915 25.7423L438.915 8.25043L455.598 8.25043L455.598 25.7423ZM455.598 7.74489L438.915 7.74489L438.915 -9.74701L455.598 -9.74701L455.598 7.74489Z" stroke="url(#paint20_linear_221_497)" stroke-width="0.505546"/>
</g>
</g>
<defs>
<filter id="filter0_f_221_497" x="-22.4" y="-77.4" width="191.8" height="191.8" filterUnits="userSpaceOnUse" color-interpolation-filters="sRGB">
<feFlood flood-opacity="0" result="BackgroundImageFix"/>
<feBlend mode="normal" in="SourceGraphic" in2="BackgroundImageFix" result="shape"/>
<feGaussianBlur stdDeviation="15.2" result="effect1_foregroundBlur_221_497"/>
</filter>
<filter id="filter1_f_221_497" x="726" y="-31" width="323" height="323" filterUnits="userSpaceOnUse" color-interpolation-filters="sRGB">
<feFlood flood-opacity="0" result="BackgroundImageFix"/>
<feBlend mode="normal" in="SourceGraphic" in2="BackgroundImageFix" result="shape"/>
<feGaussianBlur stdDeviation="25" result="effect1_foregroundBlur_221_497"/>
</filter>
<filter id="filter2_f_221_497" x="108" y="-62" width="152" height="152" filterUnits="userSpaceOnUse" color-interpolation-filters="sRGB">
<feFlood flood-opacity="0" result="BackgroundImageFix"/>
<feBlend mode="normal" in="SourceGraphic" in2="BackgroundImageFix" result="shape"/>
<feGaussianBlur stdDeviation="25" result="effect1_foregroundBlur_221_497"/>
</filter>
<radialGradient id="paint0_radial_221_497" cx="0" cy="0" r="1" gradientUnits="userSpaceOnUse" gradientTransform="translate(944.571 96.6801) rotate(113.205) scale(144.842)">
<stop stop-color="#94AAFF"/>
<stop offset="1" stop-color="#F7D9FF"/>
</radialGradient>
<radialGradient id="paint1_radial_221_497" cx="0" cy="0" r="1" gradientUnits="userSpaceOnUse" gradientTransform="translate(197.308 6.11374) rotate(113.205) scale(33.7749)">
<stop stop-color="#94AAFF"/>
<stop offset="1" stop-color="#F7D9FF"/>
</radialGradient>
<linearGradient id="paint2_linear_221_497" x1="800.875" y1="244" x2="800.875" y2="-23" gradientUnits="userSpaceOnUse">
<stop offset="0.48" stop-color="white"/>
<stop offset="1" stop-color="white" stop-opacity="0"/>
</linearGradient>
<linearGradient id="paint3_linear_221_497" x1="825.625" y1="244" x2="825.625" y2="-23" gradientUnits="userSpaceOnUse">
<stop offset="0.48" stop-color="white"/>
<stop offset="1" stop-color="white" stop-opacity="0"/>
</linearGradient>
<linearGradient id="paint4_linear_221_497" x1="850.375" y1="244" x2="850.375" y2="-23" gradientUnits="userSpaceOnUse">
<stop offset="0.48" stop-color="white"/>
<stop offset="1" stop-color="white" stop-opacity="0"/>
</linearGradient>
<linearGradient id="paint5_linear_221_497" x1="875.125" y1="244" x2="875.125" y2="-23" gradientUnits="userSpaceOnUse">
<stop offset="0.48" stop-color="white"/>
<stop offset="1" stop-color="white" stop-opacity="0"/>
</linearGradient>
<linearGradient id="paint6_linear_221_497" x1="899.875" y1="244" x2="899.875" y2="-23" gradientUnits="userSpaceOnUse">
<stop offset="0.48" stop-color="white"/>
<stop offset="1" stop-color="white" stop-opacity="0"/>
</linearGradient>
<linearGradient id="paint7_linear_221_497" x1="924.625" y1="244" x2="924.625" y2="-23" gradientUnits="userSpaceOnUse">
<stop offset="0.48" stop-color="white"/>
<stop offset="1" stop-color="white" stop-opacity="0"/>
</linearGradient>
<linearGradient id="paint8_linear_221_497" x1="949.375" y1="244" x2="949.375" y2="-23" gradientUnits="userSpaceOnUse">
<stop offset="0.48" stop-color="white"/>
<stop offset="1" stop-color="white" stop-opacity="0"/>
</linearGradient>
<linearGradient id="paint9_linear_221_497" x1="263.744" y1="169.975" x2="263.744" y2="-9.99979" gradientUnits="userSpaceOnUse">
<stop offset="0.48" stop-color="white"/>
<stop offset="1" stop-color="white" stop-opacity="0"/>
</linearGradient>
<linearGradient id="paint10_linear_221_497" x1="280.426" y1="169.975" x2="280.426" y2="-9.99979" gradientUnits="userSpaceOnUse">
<stop offset="0.48" stop-color="white"/>
<stop offset="1" stop-color="white" stop-opacity="0"/>
</linearGradient>
<linearGradient id="paint11_linear_221_497" x1="297.11" y1="169.975" x2="297.11" y2="-9.99979" gradientUnits="userSpaceOnUse">
<stop offset="0.48" stop-color="white"/>
<stop offset="1" stop-color="white" stop-opacity="0"/>
</linearGradient>
<linearGradient id="paint12_linear_221_497" x1="313.793" y1="169.975" x2="313.793" y2="-9.99979" gradientUnits="userSpaceOnUse">
<stop offset="0.48" stop-color="white"/>
<stop offset="1" stop-color="white" stop-opacity="0"/>
</linearGradient>
<linearGradient id="paint13_linear_221_497" x1="330.475" y1="169.975" x2="330.475" y2="-9.99979" gradientUnits="userSpaceOnUse">
<stop offset="0.48" stop-color="white"/>
<stop offset="1" stop-color="white" stop-opacity="0"/>
</linearGradient>
<linearGradient id="paint14_linear_221_497" x1="347.159" y1="169.975" x2="347.159" y2="-9.99979" gradientUnits="userSpaceOnUse">
<stop offset="0.48" stop-color="white"/>
<stop offset="1" stop-color="white" stop-opacity="0"/>
</linearGradient>
<linearGradient id="paint15_linear_221_497" x1="363.841" y1="169.975" x2="363.841" y2="-9.99979" gradientUnits="userSpaceOnUse">
<stop offset="0.48" stop-color="white"/>
<stop offset="1" stop-color="white" stop-opacity="0"/>
</linearGradient>
<linearGradient id="paint16_linear_221_497" x1="380.525" y1="169.975" x2="380.525" y2="-9.99979" gradientUnits="userSpaceOnUse">
<stop offset="0.48" stop-color="white"/>
<stop offset="1" stop-color="white" stop-opacity="0"/>
</linearGradient>
<linearGradient id="paint17_linear_221_497" x1="397.208" y1="169.975" x2="397.208" y2="-9.99979" gradientUnits="userSpaceOnUse">
<stop offset="0.48" stop-color="white"/>
<stop offset="1" stop-color="white" stop-opacity="0"/>
</linearGradient>
<linearGradient id="paint18_linear_221_497" x1="413.89" y1="169.975" x2="413.89" y2="-9.99979" gradientUnits="userSpaceOnUse">
<stop offset="0.48" stop-color="white"/>
<stop offset="1" stop-color="white" stop-opacity="0"/>
</linearGradient>
<linearGradient id="paint19_linear_221_497" x1="430.574" y1="169.975" x2="430.574" y2="-9.99979" gradientUnits="userSpaceOnUse">
<stop offset="0.48" stop-color="white"/>
<stop offset="1" stop-color="white" stop-opacity="0"/>
</linearGradient>
<linearGradient id="paint20_linear_221_497" x1="447.256" y1="169.975" x2="447.256" y2="-9.99979" gradientUnits="userSpaceOnUse">
<stop offset="0.48" stop-color="white"/>
<stop offset="1" stop-color="white" stop-opacity="0"/>
</linearGradient>
<clipPath id="clip0_221_497">
<rect width="960" height="110" fill="white"/>
</clipPath>
</defs>
</svg>
