<svg width="138" height="56" viewBox="0 0 138 56" fill="none" xmlns="http://www.w3.org/2000/svg">
<path d="M8.846 41.6781V41.4118C9.00539 41.3585 9.13822 41.3052 9.19135 41.1987C9.24448 41.1454 9.29761 41.0389 9.29761 40.9058C9.29761 40.8525 9.29761 40.7992 9.29761 40.746C9.29761 40.6927 9.29761 40.6394 9.29761 40.5862L6.50828 32.7565C6.40202 32.4103 6.24263 32.1973 6.16294 32.0907C6.08324 31.9842 5.87072 31.8777 5.6582 31.8244V31.5581H8.89913V31.8244C8.73974 31.8777 8.60692 31.9309 8.55379 32.0375C8.50066 32.0907 8.44753 32.1973 8.44753 32.3038C8.44753 32.3571 8.44753 32.3571 8.44753 32.4636C8.44753 32.5168 8.50066 32.5701 8.50066 32.6766L10.493 38.6687L12.4323 32.6766C12.4323 32.6234 12.4854 32.6234 12.4854 32.5168C12.4854 32.4636 12.4854 32.4103 12.4854 32.357C12.4854 32.1973 12.4323 32.0907 12.3791 32.0641C12.326 32.0375 12.2198 31.9043 12.0338 31.8511V31.5847H15.4873V31.8511C15.3279 31.9043 15.195 31.9576 15.1419 32.0641C15.0888 32.1174 15.0356 32.2239 15.0356 32.3304C15.0356 32.3837 15.0356 32.3837 15.0356 32.4902C15.0356 32.5435 15.0888 32.5967 15.0888 32.7033L17.028 38.5622L18.9673 32.7033C18.9673 32.65 18.9673 32.65 18.9673 32.5435C18.9673 32.4902 18.9673 32.4369 18.9673 32.3837C18.9673 32.2239 18.9141 32.1174 18.861 32.0907C18.8079 32.0375 18.7016 31.9309 18.5157 31.8777V31.6114H21.6238V31.8777C21.3581 31.9309 21.2253 32.0375 21.119 32.1706C21.0128 32.2772 20.9065 32.5168 20.7737 32.8364L18.0375 40.6661C18.0375 40.7193 18.0375 40.7726 17.9844 40.8259C17.9844 40.8791 17.9844 40.9324 17.9844 40.9856C17.9844 41.1454 18.0375 41.252 18.0906 41.2786C18.1438 41.3319 18.25 41.4384 18.436 41.4916V41.758H15.2482V41.465C15.4607 41.4118 15.5404 41.3585 15.5935 41.252C15.6466 41.1987 15.6998 41.0922 15.6998 40.959C15.6998 40.9058 15.6998 40.9058 15.6998 40.8525C15.6998 40.7992 15.6998 40.746 15.6466 40.6927L13.4683 34.0881L11.29 40.6927C11.29 40.746 11.2369 40.7992 11.2369 40.8525C11.2369 40.9058 11.2369 40.959 11.2369 41.0123C11.2369 41.1721 11.29 41.2786 11.3431 41.3052C11.3962 41.3319 11.5556 41.465 11.6885 41.5183V41.7846H8.846V41.6781Z" fill="#58595B"/>
<path d="M23.1116 41.0655L23.9351 39.0415L24.2007 39.1481C24.2007 39.1481 24.2007 39.2013 24.1476 39.2013C24.1476 39.2546 24.1476 39.3079 24.1476 39.3079C24.1476 39.5209 24.4398 39.7606 25.0508 39.9736C25.6618 40.24 26.3259 40.3199 26.9369 40.3199C27.6011 40.3199 28.1058 40.2133 28.5043 40.0269C28.9027 39.8139 29.0621 39.5742 29.0621 39.2546C29.0621 38.8019 28.398 38.5355 27.0698 38.429C26.565 38.3758 26.1665 38.3758 25.8478 38.3225C24.9446 38.216 24.2804 37.9763 23.8288 37.6034C23.3772 37.204 23.1647 36.698 23.1647 35.9789C23.1647 35.1267 23.51 34.4609 24.1742 33.9549C24.8383 33.4489 25.7415 33.1826 26.8041 33.1826C27.5745 33.1826 28.3183 33.3424 29.0887 33.6354C29.2481 33.6886 29.3012 33.6886 29.3543 33.6886C29.4075 33.6886 29.5669 33.7419 29.806 33.9017C30.0185 34.0615 30.2044 34.1147 30.3107 34.1147C30.3107 34.1147 30.3638 34.1147 30.4169 34.0615C30.4701 34.0082 30.5232 34.0082 30.5763 33.9549L30.7889 34.0615L29.8325 36.1387L29.5669 35.9789V35.9257V35.8724C29.5669 35.6061 29.2747 35.3664 28.7168 35.1001C28.1058 34.8338 27.4948 34.7006 26.8838 34.7006C26.3259 34.7006 25.8743 34.8071 25.5024 34.9669C25.1305 35.1267 24.9977 35.3664 24.9977 35.6327C24.9977 36.0322 25.5024 36.2985 26.5119 36.3518C27.2823 36.405 27.8933 36.4583 28.398 36.5648C29.2215 36.7246 29.8591 37.0176 30.2841 37.417C30.6826 37.8165 30.8951 38.3758 30.8951 38.9883C30.8951 39.8139 30.5498 40.453 29.8325 41.0123C29.1153 41.5183 28.1589 41.8379 26.9901 41.8379C25.8743 41.8379 24.8649 41.5715 23.8554 41.1188C23.6429 41.0123 23.5632 40.959 23.51 40.959C23.4569 40.959 23.4038 40.959 23.3507 41.0123C23.2975 41.0123 23.2975 41.0655 23.2975 41.1188L23.1116 41.0655Z" fill="#58595B"/>
<path d="M42.0258 38.2163L42.2384 38.0565L43.5666 40.2403L43.3541 40.4001C43.301 40.3468 43.2478 40.2935 43.1947 40.2403C43.1416 40.187 43.1416 40.187 43.0884 40.187C43.0353 40.187 42.8228 40.2935 42.5306 40.48C41.1226 41.3854 39.7413 41.8648 38.413 41.8648C36.8988 41.8648 35.5706 41.3588 34.5611 40.4001C33.5516 39.3881 33.0469 38.163 33.0469 36.6983C33.0469 35.1803 33.5516 33.9552 34.6142 32.9432C35.6237 31.9845 37.0051 31.4785 38.6787 31.4785C39.5287 31.4785 40.4054 31.6383 41.2555 31.9313C42.1055 32.2242 42.5837 32.384 42.6368 32.384C42.69 32.384 42.7962 32.384 42.9025 32.3307C42.9556 32.3307 43.0619 32.3307 43.1681 32.2775L43.3807 32.4373L42.0524 34.7276L41.8399 34.5678C41.8399 34.5678 41.8399 34.5678 41.8399 34.5145C41.8399 34.4612 41.8399 34.4612 41.8399 34.4612C41.8399 34.1683 41.4945 33.902 40.8304 33.609C40.1132 33.3161 39.4225 33.1563 38.6521 33.1563C37.6426 33.1563 36.766 33.5025 36.1018 34.115C35.4377 34.7276 35.0924 35.5798 35.0924 36.5651C35.0924 37.5771 35.4377 38.456 36.1018 39.1217C36.766 39.7343 37.6161 40.0805 38.7318 40.0805C39.5553 40.0805 40.2991 39.9207 41.0695 39.5212C41.8399 39.175 42.2384 38.8554 42.2384 38.6158C42.2384 38.5625 42.2384 38.5092 42.2384 38.456C42.079 38.3228 42.079 38.2695 42.0258 38.2163Z" fill="#58595B"/>
<path d="M52.0939 34.2479C52.0939 34.0349 52.0408 33.955 51.9877 33.8485C51.9345 33.7952 51.8283 33.6887 51.6423 33.6887V33.4224H54.3785V33.6887C54.2191 33.7419 54.0863 33.7952 54.0332 33.8485C53.98 33.9017 53.9269 34.0615 53.9269 34.2479V38.6155C53.9269 39.7873 53.6347 40.6395 53.0237 41.1189C52.4127 41.6249 51.4032 41.8912 49.9687 41.8912C48.5608 41.8912 47.5247 41.6249 46.9669 41.1189C46.3559 40.6129 46.0637 39.7873 46.0637 38.6155V34.2479C46.0637 34.0349 46.0105 33.955 45.9574 33.8485C45.9043 33.7952 45.798 33.6887 45.6121 33.6887V33.4224H48.2951V33.6887C48.1357 33.7419 48.0295 33.7952 47.9498 33.8485C47.8967 33.9017 47.8435 34.0615 47.8435 34.2479V38.2693C47.8435 38.9883 48.0029 39.5476 48.3483 39.8406C48.6405 40.1335 49.1983 40.2933 49.9687 40.2933C50.686 40.2933 51.2438 40.1335 51.5892 39.7873C51.8814 39.4943 52.0939 38.9351 52.0939 38.1628V34.2479Z" fill="#58595B"/>
<path d="M62.534 33.449C63.4372 33.449 64.1013 33.6621 64.6061 34.0083C65.1108 34.4078 65.3233 34.9138 65.3233 35.5796C65.3233 35.9258 65.2171 36.2986 65.0577 36.5383C64.8983 36.778 64.6061 37.0443 64.2342 37.2573C64.6858 37.5236 65.0577 37.7633 65.2436 38.1095C65.4296 38.4558 65.5359 38.8286 65.5359 39.2813C65.5359 40.0536 65.2436 40.6129 64.6858 41.0656C64.1279 41.4651 63.3044 41.6782 62.2949 41.6782H57.1147V41.4118C57.2741 41.3586 57.407 41.3053 57.4601 41.2521C57.5132 41.1988 57.5664 41.039 57.5664 40.8526V34.1947C57.5664 33.9817 57.5132 33.9018 57.4601 33.7952C57.407 33.742 57.3007 33.6355 57.1147 33.6355V33.3691H62.5074L62.534 33.449ZM61.9761 34.8605H59.4259V36.5383H62.1621C62.6137 36.5383 62.9856 36.485 63.1716 36.3252C63.4372 36.1654 63.5169 35.979 63.5169 35.6594C63.5169 35.3399 63.4107 35.1534 63.1716 34.9937C63.0122 34.967 62.5871 34.8605 61.9761 34.8605ZM61.8433 38.003H59.4525V40.2401H61.7902C62.5606 40.2401 63.1184 40.1335 63.3575 39.9737C63.6497 39.814 63.8091 39.521 63.8091 39.1215C63.8091 38.7221 63.6497 38.4558 63.3575 38.2693C63.0387 38.1095 62.534 38.003 61.8433 38.003Z" fill="#58595B"/>
<path d="M75.2852 33.4491C75.4977 33.4491 75.5774 33.3958 75.6306 33.3425C75.6837 33.2893 75.7368 33.1828 75.79 32.9963H76.0556V35.553H75.79C75.7368 35.3399 75.6837 35.26 75.6306 35.2068C75.5774 35.1535 75.418 35.1002 75.2852 35.1002H70.6098V36.7247H73.5054C73.7179 36.7247 73.7976 36.6715 73.8507 36.6182C73.9038 36.565 73.957 36.4584 74.0101 36.272H74.2758V38.6156H74.0101C73.957 38.4558 73.9038 38.3226 73.8507 38.2694C73.7976 38.2161 73.6382 38.1628 73.5054 38.1628H70.6098V40.0537H75.4712C75.6837 40.0537 75.7634 40.0004 75.8165 39.9472C75.8697 39.8939 75.9228 39.7341 75.9759 39.6009H76.2416V42.1842H75.9759C75.9228 41.9711 75.8697 41.8913 75.8165 41.838C75.7634 41.7847 75.604 41.7315 75.4712 41.7315H68.3252V41.4651C68.4846 41.4119 68.6174 41.3586 68.6705 41.3054C68.7237 41.1988 68.7768 41.0923 68.7768 40.9059V34.248C68.7768 34.035 68.7237 33.9551 68.6705 33.8485C68.6174 33.7953 68.458 33.6888 68.3252 33.6888V33.4224H75.2852V33.4491Z" fill="#58595B"/>
<path d="M84.7157 33.3957C84.5032 33.3957 84.4235 33.449 84.3704 33.5023C84.3172 33.5555 84.2641 33.7153 84.211 33.8485H83.9453V31.1587H84.1578C84.211 31.3717 84.2641 31.4516 84.3172 31.5049C84.3704 31.5582 84.5297 31.6114 84.6626 31.6114H92.5258C92.7383 31.6114 92.818 31.5582 92.8712 31.5049C92.9243 31.4516 92.9774 31.2918 93.0305 31.1587H93.2962V33.9017H93.0305C92.9774 33.6887 92.9243 33.6088 92.8712 33.5555C92.818 33.5023 92.6586 33.449 92.5258 33.449H89.6302V40.9324C89.6302 41.1455 89.6833 41.2254 89.7365 41.3319C89.7896 41.3852 89.8959 41.4384 90.0818 41.4917V41.758H87.1862V41.4651C87.3456 41.4118 87.4785 41.3585 87.5316 41.3053C87.5847 41.252 87.6378 41.0922 87.6378 40.9058V33.4224H84.7157V33.3957Z" fill="#2193D2"/>
<path d="M102.142 33.4491C102.355 33.4491 102.434 33.3958 102.487 33.3425C102.541 33.2893 102.594 33.1828 102.647 32.9963H102.913V35.553H102.647C102.594 35.3399 102.541 35.26 102.487 35.2068C102.434 35.1535 102.275 35.1002 102.142 35.1002H97.4667V36.7247H100.362C100.575 36.7247 100.655 36.6715 100.708 36.6182C100.761 36.565 100.814 36.4584 100.867 36.272H101.133V38.6156H100.867C100.814 38.4558 100.761 38.3226 100.708 38.2694C100.655 38.2161 100.495 38.1628 100.362 38.1628H97.4667V40.0537H102.328C102.541 40.0537 102.62 40.0004 102.673 39.9472C102.727 39.8939 102.78 39.7341 102.833 39.6009H103.098V42.1842H102.833C102.78 41.9711 102.727 41.8913 102.673 41.838C102.62 41.7847 102.461 41.7315 102.328 41.7315H95.1821V41.4651C95.3415 41.4119 95.4743 41.3586 95.5275 41.3054C95.5806 41.1988 95.6337 41.0923 95.6337 40.9059V34.248C95.6337 34.035 95.5806 33.9551 95.5275 33.8485C95.4743 33.7953 95.315 33.6888 95.1821 33.6888V33.4224H102.142V33.4491Z" fill="#2193D2"/>
<path d="M112.795 36.0324L112.582 35.9258V35.8726V35.8193C112.582 35.6062 112.317 35.3666 111.759 35.1535C111.201 34.8872 110.643 34.8073 110.032 34.8073C109.182 34.8073 108.518 35.0736 107.96 35.5796C107.455 36.0856 107.19 36.7514 107.19 37.577C107.19 38.4026 107.455 39.0417 107.96 39.5743C108.465 40.0803 109.182 40.2934 110.032 40.2934C110.696 40.2934 111.36 40.1336 111.918 39.8407C112.529 39.5477 112.822 39.3347 112.822 39.1216C112.822 39.1216 112.822 39.0683 112.822 39.0151C112.822 38.9618 112.768 38.9085 112.768 38.8553L112.981 38.7488L114.15 40.5863L113.937 40.6929C113.884 40.6396 113.831 40.5863 113.778 40.5863C113.725 40.5863 113.725 40.5863 113.672 40.5863C113.619 40.5863 113.406 40.6929 113.167 40.8526C111.998 41.5717 110.829 41.9712 109.713 41.9712C108.385 41.9712 107.323 41.5717 106.473 40.7461C105.622 39.9205 105.144 38.8553 105.144 37.6302C105.144 36.3519 105.596 35.3399 106.473 34.5144C107.323 33.6888 108.491 33.2893 109.873 33.2893C110.59 33.2893 111.281 33.3958 112.051 33.6355C112.768 33.9018 113.167 33.9817 113.273 33.9817C113.326 33.9817 113.379 33.9817 113.433 33.9817C113.486 33.9817 113.592 33.9285 113.645 33.9285L113.858 34.035L112.795 36.0324Z" fill="#2193D2"/>
<path d="M118.321 40.8526C118.321 41.0656 118.374 41.1455 118.427 41.2521C118.48 41.3053 118.586 41.4118 118.772 41.4118V41.6782H116.089V41.4118C116.249 41.3586 116.355 41.3053 116.434 41.2521C116.488 41.1988 116.541 41.039 116.541 40.8526V34.1947C116.541 33.9817 116.488 33.9018 116.434 33.7952C116.381 33.742 116.275 33.6355 116.089 33.6355V33.3691H118.772V33.6355C118.613 33.6887 118.48 33.742 118.427 33.7952C118.374 33.9018 118.321 34.0083 118.321 34.1947V36.4318H122.571V34.1947C122.571 33.9817 122.518 33.9018 122.465 33.7952C122.412 33.742 122.305 33.6355 122.119 33.6355V33.3691H124.856V33.6355C124.696 33.6887 124.59 33.742 124.51 33.7952C124.457 33.8485 124.404 34.0083 124.404 34.1947V40.8526C124.404 41.0656 124.457 41.1455 124.51 41.2521C124.563 41.3053 124.67 41.4118 124.856 41.4118V41.6782H122.119V41.4118C122.332 41.3586 122.412 41.3053 122.465 41.2521C122.518 41.1455 122.571 41.039 122.571 40.8526V38.0563H118.321V40.8526Z" fill="#2193D2"/>
<path d="M39.449 24.1813L45.3995 13.8482L45.6917 13.3955H46.2496H58.071H58.6289L58.8945 13.8482L64.8717 24.0747L65.1373 24.5275L64.8717 24.9802L61.9229 30.1733H59.7977L63.0121 24.5275L57.5663 15.2597H46.7543L41.3351 24.634L44.576 30.1733H42.3977L39.449 25.0867L39.1567 24.634L39.449 24.1813Z" fill="#2193D2"/>
<path d="M4.01121 24.1813L10.0149 13.8482L10.254 13.3955H10.7853H22.6598H23.2177L23.4568 13.8482L29.4605 24.0747L29.6996 24.5275L29.4605 24.9802L26.5118 30.1733H24.3866L27.5744 24.5275L22.1551 15.2597H11.3431L5.89732 24.634L9.13825 30.1733H6.95992L4.01121 25.0867L3.71899 24.634L4.01121 24.1813Z" fill="#2193D2"/>
<path d="M21.7302 13.6354L27.7339 3.30234L27.973 2.84961H28.4777H40.3523H40.9101L41.1758 3.30234L47.1529 13.5288L47.4186 14.0082L47.1529 14.4609L44.2308 19.6008H42.079L45.2934 14.0082L39.8475 4.68718H29.0356L23.6163 14.1147L26.8572 19.6008H24.6789L21.7302 14.5675L21.438 14.1147L21.7302 13.6354Z" fill="#2193D2"/>
<path d="M21.7302 14.514L27.7339 24.847L27.973 25.353H28.4777H40.3523H40.9101L41.1758 24.847L47.1529 14.6738L47.4186 14.1412L47.1529 13.6885L44.2308 8.54858H42.079L45.2934 14.1412L39.8475 23.4622H29.0356L23.6163 14.0613L26.8572 8.54858H24.6789L21.7302 13.5819L21.438 14.0613L21.7302 14.514Z" fill="#2193D2"/>
<path d="M60.2495 49.9419V46.3999H61.0199V49.9419C61.0199 51.38 61.6309 51.8327 62.4013 51.8327C63.1982 51.8327 63.8358 51.38 63.8358 49.9419V46.3999H64.5796V49.9419C64.5796 51.8594 63.6498 52.5251 62.4278 52.5251C61.1793 52.5251 60.2495 51.8594 60.2495 49.9419Z" fill="#58595B"/>
<path d="M66.0938 47.9713H66.7047L66.7579 48.4773H66.7844C67.1829 48.1311 67.6877 47.8647 68.1924 47.8647C69.3347 47.8647 69.9457 48.7702 69.9457 50.1284C69.9457 51.6464 69.0425 52.5253 68.033 52.5253C67.6345 52.5253 67.2095 52.3388 66.811 52.0193L66.8376 52.7916V54.3096H66.0938V47.9713ZM69.2019 50.1284C69.2019 49.1431 68.8565 48.4773 68.033 48.4773C67.6611 48.4773 67.2892 48.6903 66.8376 49.0898V51.4334C67.236 51.7796 67.6345 51.8861 67.9267 51.8861C68.644 51.8861 69.2019 51.2203 69.2019 50.1284Z" fill="#58595B"/>
<path d="M70.6631 51.9127L71.035 51.4067C71.4335 51.7263 71.8054 51.9394 72.3367 51.9394C72.9211 51.9394 73.2133 51.6198 73.2133 51.2469C73.2133 50.7942 72.682 50.5812 72.2039 50.3947C71.5929 50.1551 70.8756 49.8621 70.8756 49.1164C70.8756 48.3974 71.4335 47.8647 72.4164 47.8647C72.9742 47.8647 73.4524 48.1044 73.7977 48.3707L73.4258 48.8501C73.1071 48.6104 72.8149 48.4506 72.4164 48.4506C71.8585 48.4506 71.5929 48.7436 71.5929 49.0898C71.5929 49.5159 72.071 49.6757 72.5758 49.8621C73.2133 50.1018 73.9306 50.3681 73.9306 51.2203C73.9306 51.9394 73.3462 52.5519 72.3101 52.5519C71.6991 52.5253 71.0881 52.2589 70.6631 51.9127Z" fill="#58595B"/>
<path d="M74.9931 45.894H75.7369V50.3149H75.7635L77.6496 47.9713H78.4731L76.9855 49.7556L78.6591 52.4188H77.8356L76.5339 50.2882L75.7104 51.247V52.4188H74.9666V45.894H74.9931Z" fill="#58595B"/>
<path d="M79.3762 46.5597C79.3762 46.2667 79.6153 46.0803 79.9075 46.0803C80.1997 46.0803 80.4388 46.2667 80.4388 46.5597C80.4388 46.8526 80.1997 47.0391 79.9075 47.0391C79.5887 47.0391 79.3762 46.8526 79.3762 46.5597ZM79.509 47.9712H80.2529V52.4186H79.509V47.9712Z" fill="#58595B"/>
<path d="M81.7405 51.5133V45.894H82.4843V51.5932C82.4843 51.8329 82.5906 51.9128 82.6968 51.9128C82.7499 51.9128 82.7765 51.9128 82.8562 51.8861L82.9625 52.472C82.8562 52.4987 82.7234 52.5519 82.5374 52.5519C81.9796 52.5253 81.7405 52.1791 81.7405 51.5133Z" fill="#58595B"/>
<path d="M84.0781 51.5133V45.894H84.8219V51.5932C84.8219 51.8329 84.9282 51.9128 85.0345 51.9128C85.0876 51.9128 85.1142 51.9128 85.1939 51.8861L85.3001 52.472C85.1939 52.4987 85.061 52.5519 84.8751 52.5519C84.3172 52.5253 84.0781 52.1791 84.0781 51.5133Z" fill="#58595B"/>
<path d="M86.2832 46.5597C86.2832 46.2667 86.5223 46.0803 86.8145 46.0803C87.1067 46.0803 87.3458 46.2667 87.3458 46.5597C87.3458 46.8526 87.1067 47.0391 86.8145 47.0391C86.4957 47.0391 86.2832 46.8526 86.2832 46.5597ZM86.416 47.9712H87.1598V52.4186H86.416V47.9712Z" fill="#58595B"/>
<path d="M88.6474 47.9713H89.2584L89.3115 48.6104H89.3381C89.7631 48.1843 90.2147 47.8647 90.8257 47.8647C91.7555 47.8647 92.1806 48.4773 92.1806 49.5958V52.4187H91.4367V49.7023C91.4367 48.8767 91.1977 48.5305 90.5867 48.5305C90.1351 48.5305 89.8163 48.7702 89.3647 49.2229V52.4454H88.6208V47.9713H88.6474Z" fill="#58595B"/>
<path d="M93.3228 53.2707C93.3228 52.8979 93.5618 52.525 93.9869 52.2587V52.2321C93.7478 52.0989 93.5884 51.8592 93.5884 51.513C93.5884 51.1402 93.8541 50.8472 94.0666 50.6875V50.6342C93.7744 50.3945 93.4821 49.9684 93.4821 49.4358C93.4821 48.4504 94.2525 47.8379 95.1557 47.8379C95.3948 47.8379 95.6339 47.8912 95.7933 47.9444H97.3341V48.5303H96.4309C96.6434 48.7434 96.8028 49.0629 96.8028 49.4358C96.8028 50.3945 96.0855 50.9804 95.1823 50.9804C94.9698 50.9804 94.7307 50.9271 94.5182 50.8206C94.3588 50.9538 94.226 51.1136 94.226 51.3532C94.226 51.6462 94.4119 51.8326 94.9964 51.8326H95.873C96.909 51.8326 97.4138 52.1522 97.4138 52.8979C97.4138 53.7234 96.5371 54.4425 95.1557 54.4425C94.0666 54.4691 93.3228 54.043 93.3228 53.2707ZM96.6699 53.031C96.6699 52.6316 96.3512 52.4718 95.7667 52.4718H94.9964C94.837 52.4718 94.6244 52.4451 94.4119 52.4185C94.0931 52.6316 93.9603 52.8979 93.9603 53.1642C93.9603 53.6436 94.4385 53.9365 95.2354 53.9365C96.1121 53.9365 96.6699 53.5104 96.6699 53.031ZM96.0855 49.4358C96.0855 48.7966 95.6605 48.3972 95.1292 48.3972C94.5979 48.3972 94.1728 48.7966 94.1728 49.4358C94.1728 50.0749 94.5979 50.501 95.1292 50.501C95.6605 50.501 96.0855 50.1016 96.0855 49.4358Z" fill="#58595B"/>
<path d="M100.15 46.3999H101.93C103.152 46.3999 104.002 46.826 104.002 47.8646C104.002 48.4505 103.683 48.9832 103.125 49.1696V49.1962C103.843 49.3294 104.347 49.8087 104.347 50.6343C104.347 51.8061 103.418 52.392 102.089 52.392H100.15V46.3999ZM101.797 48.9565C102.807 48.9565 103.232 48.5837 103.232 47.9712C103.232 47.2787 102.754 47.0124 101.824 47.0124H100.894V48.9565H101.797ZM101.957 51.8061C102.993 51.8061 103.577 51.4333 103.577 50.6343C103.577 49.8886 102.993 49.5424 101.957 49.5424H100.921V51.8061H101.957Z" fill="#58595B"/>
<path d="M105.463 45.894H106.207V47.6784L106.18 48.5838C106.605 48.1844 107.057 47.8381 107.641 47.8381C108.571 47.8381 108.996 48.4507 108.996 49.5692V52.3921H108.252V49.6757C108.252 48.8501 108.013 48.5039 107.402 48.5039C106.951 48.5039 106.632 48.7436 106.18 49.1963V52.4188H105.463V45.894Z" fill="#58595B"/>
<path d="M110.165 51.2733C110.165 50.3146 110.989 49.8086 112.901 49.6222C112.901 49.0363 112.715 48.5036 111.971 48.5036C111.467 48.5036 110.989 48.7433 110.643 48.983L110.351 48.477C110.749 48.2107 111.387 47.8911 112.104 47.8911C113.193 47.8911 113.645 48.6102 113.645 49.7287V52.4717H113.034L112.981 51.9391H112.954C112.529 52.2853 112.025 52.5783 111.493 52.5783C110.723 52.525 110.165 52.0723 110.165 51.2733ZM112.875 51.3266V50.1015C111.387 50.2879 110.882 50.6342 110.882 51.22C110.882 51.726 111.228 51.9391 111.653 51.9391C112.104 51.9125 112.45 51.6994 112.875 51.3266Z" fill="#58595B"/>
<path d="M115.026 47.971H115.637L115.69 48.77H115.717C116.036 48.2107 116.487 47.8379 116.992 47.8379C117.178 47.8379 117.338 47.8645 117.47 47.9178L117.338 48.5836C117.178 48.5303 117.072 48.5037 116.912 48.5037C116.541 48.5037 116.089 48.77 115.797 49.5157V52.3652H115.026V47.971Z" fill="#58595B"/>
<path d="M117.922 51.2733C117.922 50.3146 118.745 49.8086 120.658 49.6222C120.658 49.0363 120.472 48.5036 119.728 48.5036C119.224 48.5036 118.745 48.7433 118.4 48.983L118.108 48.477C118.506 48.2107 119.144 47.8911 119.861 47.8911C120.95 47.8911 121.402 48.6102 121.402 49.7287V52.4717H120.791L120.738 51.9391H120.711C120.286 52.2853 119.781 52.5783 119.25 52.5783C118.48 52.525 117.922 52.0723 117.922 51.2733ZM120.658 51.3266V50.1015C119.17 50.2879 118.666 50.6342 118.666 51.22C118.666 51.726 119.011 51.9391 119.436 51.9391C119.861 51.9125 120.233 51.6994 120.658 51.3266Z" fill="#58595B"/>
<path d="M122.943 51.0338V48.5837H122.279V48.0244L122.97 47.9712L123.049 46.7195H123.687V47.9712H124.882V48.5837H123.687V51.0604C123.687 51.593 123.873 51.9126 124.377 51.9126C124.537 51.9126 124.749 51.8594 124.882 51.8061L125.015 52.3654C124.776 52.4452 124.457 52.5251 124.191 52.5251C123.262 52.5251 122.943 51.9393 122.943 51.0338Z" fill="#58595B"/>
<path d="M127.297 31.4103C129.56 31.4103 131.393 29.5659 131.393 27.2929C131.393 25.0199 129.56 23.1755 127.297 23.1755C125.034 23.1755 123.201 25.0199 123.201 27.2929C123.201 29.5659 125.034 31.4103 127.297 31.4103Z" stroke="#58595B" stroke-width="0.375"/>
<path d="M125.41 29.6509V25.1499H127.312C127.79 25.1499 128.138 25.1908 128.353 25.2727C128.571 25.3525 128.745 25.4958 128.876 25.7025C129.006 25.9093 129.071 26.1457 129.071 26.4118C129.071 26.7495 128.972 27.0289 128.775 27.2499C128.577 27.4689 128.282 27.6071 127.889 27.6644C128.085 27.779 128.245 27.9049 128.372 28.0421C128.5 28.1792 128.672 28.4228 128.888 28.7728L129.434 29.6509H128.353L127.7 28.6715C127.468 28.3214 127.309 28.1014 127.224 28.0114C127.138 27.9192 127.047 27.8568 126.952 27.8241C126.856 27.7893 126.704 27.7719 126.497 27.7719H126.314V29.6509H125.41ZM126.314 27.0534H126.982C127.416 27.0534 127.687 27.035 127.795 26.9982C127.902 26.9613 127.987 26.8979 128.048 26.8078C128.109 26.7178 128.14 26.6052 128.14 26.4701C128.14 26.3186 128.099 26.1968 128.017 26.1047C127.938 26.0106 127.825 25.9512 127.679 25.9267C127.605 25.9164 127.385 25.9113 127.019 25.9113H126.314V27.0534Z" fill="#58595B"/>
</svg>
